<?xml version="1.0" encoding="UTF-8"?>
<svg width="207px" height="94px" viewBox="0 0 207 94" version="1.1" xmlns="http://www.w3.org/2000/svg" xmlns:xlink="http://www.w3.org/1999/xlink">
    <!-- Generator: Sketch 56.3 (81716) - https://sketch.com -->
    <title>checkout-nikebyyou</title>
    <desc>Created with Sketch.</desc>
    <g id="Production" stroke="none" stroke-width="1" fill="none" fill-rule="evenodd" fill-opacity="0">
        <g id="Artboard" transform="translate(-57.000000, -134.000000)" fill="#D8D8D8" fill-rule="nonzero" stroke="#000000" stroke-width="0.75">
            <path d="M69.3125227,177.788169 L58,177.788169 L58,135.779993 L68.9781624,135.779993 C71.9874199,135.779993 74.550823,136.132843 76.6684487,136.838554 C78.7860744,137.544265 80.5321606,138.519246 81.9067597,139.763527 C83.2813588,141.007807 84.2844296,142.512063 84.9160022,144.276341 C85.5475747,146.040619 85.8633563,147.981296 85.8633563,150.098429 C85.8633563,152.17842 85.5847255,154.072669 85.0274556,155.781233 C84.4701857,157.489797 83.5878549,158.956911 82.3804368,160.18262 C81.1730186,161.408329 79.6405493,162.355453 77.782983,163.024022 C75.9254166,163.69259 73.6963704,164.02687 71.0957775,164.02687 L69.3125227,164.02687 L69.3125227,177.788169 Z M69.3125227,154.722671 L70.3713302,154.722671 C71.6344753,154.722671 72.6654092,154.304822 73.4641627,153.469112 C74.2629163,152.633401 74.6622871,151.472709 74.6622871,149.987002 C74.6622871,148.687007 74.3000671,147.544887 73.5756162,146.560605 C72.8511653,145.576324 71.7830806,145.084191 70.3713302,145.084191 L69.3125227,145.084191 L69.3125227,154.722671 Z M88.8973662,163.581159 C91.1635972,166.62686 93.5783972,168.149688 96.1418388,168.149688 C97.1077733,168.149688 97.8972272,167.889693 98.5102241,167.369695 C99.123221,166.849698 99.4297149,166.19971 99.4297149,165.419714 C99.4297149,164.305433 98.761001,163.20974 97.4235532,162.132602 L95.5845717,160.684044 C93.1325841,158.789767 91.3772102,156.923374 90.3183974,155.084811 C89.2595845,153.246248 88.7301861,151.157002 88.7301861,148.817013 C88.7301861,146.885593 89.0552553,145.084199 89.7054035,143.412778 C90.3555518,141.741357 91.2564579,140.283528 92.4081491,139.039248 C93.5598402,137.794967 94.9158434,136.810701 96.4761991,136.086418 C98.0365549,135.362136 99.7083395,135 101.491603,135 C104.166499,135 106.878505,135.724272 109.627703,137.172837 L109.627703,149.987002 C108.69892,148.575579 107.649411,147.45203 106.479144,146.616319 C105.308877,145.780609 104.147916,145.36276 102.996224,145.36276 C102.141744,145.36276 101.426592,145.613469 100.850746,146.114895 C100.2749,146.616322 99.986982,147.219881 99.986982,147.925593 C99.986982,149.039873 100.748573,150.154137 102.271777,151.268418 L104.110759,152.605549 C106.488444,154.351255 108.197379,156.124792 109.237616,157.926213 C110.277853,159.727633 110.797964,161.83545 110.797964,164.249725 C110.797964,166.329715 110.463607,168.23325 109.794883,169.960385 C109.12616,171.68752 108.206678,173.191777 107.036411,174.4732 C105.866144,175.754623 104.454415,176.748175 102.801181,177.453886 C101.147947,178.159597 99.3554222,178.512447 97.4235532,178.512447 C94.7486576,178.512447 91.9066237,177.918173 88.8973662,176.729607 L88.8973662,163.581159 Z M134.450858,177.788169 L123.082608,177.788169 L123.082608,160.015479 L112.661713,135.779993 L124.475776,135.779993 L126.537665,142.019934 C126.946329,143.2085 127.308549,144.369192 127.624336,145.502044 C127.940122,146.634896 128.22804,147.721304 128.4881,148.761299 C128.748159,147.721304 129.02679,146.634896 129.324,145.502044 C129.621211,144.369192 129.974143,143.2085 130.382808,142.019934 L132.444696,135.779993 L144.203032,135.779993 L134.450858,160.015479 L134.450858,177.788169 Z M168.13456,177.008176 C165.608269,178.011029 163.342072,178.512447 161.335901,178.512447 C158.80961,178.512447 156.496975,178.020314 154.397925,177.036033 C152.298875,176.051751 150.487775,174.621779 148.96457,172.746073 C147.441366,170.870367 146.252541,168.595411 145.398061,165.921137 C144.54358,163.246864 144.116347,160.201208 144.116347,156.784081 C144.116347,153.552666 144.552868,150.599866 145.425924,147.925593 C146.29898,145.251319 147.543531,142.957792 149.159614,141.044943 C150.775697,139.132094 152.726112,137.646409 155.010919,136.587842 C157.295725,135.529275 159.849841,135 162.673342,135 C163.639276,135 164.577333,135.092855 165.487541,135.278569 C166.397748,135.464282 167.335805,135.724277 168.30174,136.058561 L168.30174,148.03702 C166.555627,146.365599 164.828117,145.529901 163.119155,145.529901 C160.704319,145.529901 158.865356,146.532739 157.602211,148.538444 C156.339066,150.544149 155.707503,153.292667 155.707503,156.784081 C155.707503,160.164066 156.32049,162.810443 157.546484,164.723292 C158.772478,166.63614 160.555715,167.59255 162.896249,167.59255 C164.865269,167.59255 166.83426,166.682568 168.80328,164.862576 L168.13456,177.008176 Z M202.208348,177.788169 L190.895826,177.788169 L190.895826,160.906899 L185.434608,160.906899 L185.434608,177.788169 L174.122085,177.788169 L174.122085,135.779993 L185.434608,135.779993 L185.434608,150.655567 L190.895826,150.655567 L190.895826,135.779993 L202.208348,135.779993 L202.208348,177.788169 Z M208.084421,177.788169 L208.084421,135.779993 L229.149118,135.779993 L229.149118,145.641328 L219.396943,145.641328 L219.396943,151.769842 L228.146037,151.769842 L228.146037,161.296895 L219.396943,161.296895 L219.396943,167.703978 L229.149118,167.703978 L229.149118,177.788169 L208.084421,177.788169 Z M233.966383,135.779993 L243.774284,135.779993 C247.00645,135.779993 249.829908,136.309268 252.244744,137.367835 C254.659581,138.426402 256.656435,139.893516 258.235366,141.769222 C259.814297,143.644928 261.003122,145.873456 261.801876,148.454873 C262.600629,151.03629 263,153.831236 263,156.839794 C263,159.996923 262.63778,162.866153 261.913329,165.44757 C261.188878,168.028988 260.065067,170.229659 258.541863,172.049651 C257.018659,173.869643 255.096106,175.281044 252.774148,176.283897 C250.45219,177.28675 247.712321,177.788169 244.554458,177.788169 L233.966383,177.788169 L233.966383,135.779993 Z M245.278905,167.648264 C249.365551,167.425408 251.408844,163.915476 251.408844,157.118363 C251.408844,153.738378 250.879445,151.082715 249.820632,149.151295 C248.76182,147.219875 247.377953,146.25418 245.668992,146.25418 L245.278905,146.25418 L245.278905,167.648264 Z M58,184.267545 L71.2072309,184.267545 C73.6963698,184.267545 75.8604022,184.564682 77.6993929,185.158965 C79.5383836,185.753248 81.0522775,186.579661 82.24112,187.638228 C83.4299624,188.696795 84.3122932,189.959627 84.8881388,191.426764 C85.4639844,192.8939 85.7519029,194.481726 85.7519029,196.19029 C85.7519029,201.42741 83.1513489,204.268783 77.9501631,204.714496 C80.9594206,205.160208 83.1420284,206.135189 84.4980518,207.639468 C85.8540753,209.143747 86.5320768,211.344419 86.5320768,214.241549 C86.5320768,216.024398 86.225583,217.658652 85.6125861,219.14436 C84.9995892,220.630067 84.1358338,221.902186 83.0212939,222.960752 C81.9067541,224.019319 80.5693264,224.836446 79.0089706,225.412158 C77.4486149,225.98787 75.7396795,226.275721 73.8821131,226.275721 L58,226.275721 L58,184.267545 Z M69.3125227,217.138664 C69.5354306,217.175807 69.7304722,217.194378 69.8976531,217.194378 L70.3156035,217.194378 C71.7273539,217.194378 72.8511647,216.832242 73.6870696,216.10796 C74.5229745,215.383677 74.9409206,214.390125 74.9409206,213.127273 C74.9409206,211.864422 74.5229745,210.880155 73.6870696,210.174444 C72.8511647,209.468733 71.6902032,209.115883 70.2041501,209.115883 L69.3125227,209.115883 L69.3125227,217.138664 Z M69.3125227,200.591677 L70.0926966,200.591677 C71.4672957,200.591677 72.5446681,200.275969 73.324846,199.644543 C74.1050238,199.013117 74.4951069,198.121706 74.4951069,196.970283 C74.4951069,194.556008 73.1576792,193.348888 70.4827836,193.348888 L70.0369699,193.348888 C69.8512133,193.348888 69.6097333,193.367459 69.3125227,193.404602 L69.3125227,200.591677 Z M108.903256,226.275721 L97.5350066,226.275721 L97.5350066,208.503031 L87.1141114,184.267545 L98.9281745,184.267545 L100.990063,190.507486 C101.398727,191.696053 101.760947,192.856744 102.076734,193.989597 C102.39252,195.122449 102.680438,196.208856 102.940498,197.248852 C103.200557,196.208856 103.479188,195.122449 103.776398,193.989597 C104.073609,192.856744 104.426541,191.696053 104.835206,190.507486 L106.897094,184.267545 L118.655431,184.267545 L108.903256,208.503031 L108.903256,226.275721 Z M157.156397,226.275721 L145.788148,226.275721 L145.788148,208.503031 L135.367253,184.267545 L147.181316,184.267545 L149.243204,190.507486 C149.651869,191.696053 150.014089,192.856744 150.329875,193.989597 C150.645661,195.122449 150.93358,196.208856 151.193639,197.248852 C151.453698,196.208856 151.732329,195.122449 152.02954,193.989597 C152.32675,192.856744 152.679683,191.696053 153.088347,190.507486 L155.150236,184.267545 L166.908572,184.267545 L157.156397,208.503031 L157.156397,226.275721 Z M198.976199,205.271633 C198.976199,208.503047 198.595404,211.455847 197.833801,214.130121 C197.072199,216.804395 195.985539,219.097922 194.573789,221.010771 C193.162038,222.923619 191.471678,224.400019 189.502658,225.440015 C187.533638,226.48001 185.360318,227 182.982633,227 C180.567796,227 178.385189,226.48001 176.434744,225.440015 C174.484299,224.400019 172.803227,222.923619 171.391476,221.010771 C169.979726,219.097922 168.893066,216.804395 168.131464,214.130121 C167.369861,211.455847 166.989066,208.503047 166.989066,205.271633 C166.989066,202.040219 167.369861,199.087419 168.131464,196.413145 C168.893066,193.738871 169.979726,191.445344 171.391476,189.532496 C172.803227,187.619647 174.484299,186.133961 176.434744,185.075395 C178.385189,184.016828 180.567796,183.487553 182.982633,183.487553 C185.360318,183.487553 187.533638,184.016828 189.502658,185.075395 C191.471678,186.133961 193.162038,187.619647 194.573789,189.532496 C195.985539,191.445344 197.072199,193.738871 197.833801,196.413145 C198.595404,199.087419 198.976199,202.040219 198.976199,205.271633 Z M187.217863,205.271633 C187.217863,201.668792 186.846355,198.901703 186.103329,196.970283 C185.360302,195.038863 184.32008,194.073167 182.982633,194.073167 C181.645185,194.073167 180.604963,195.038863 179.861937,196.970283 C179.11891,198.901703 178.747402,201.668792 178.747402,205.271633 C178.747402,208.874474 179.11891,211.632278 179.861937,213.545127 C180.604963,215.457975 181.645185,216.414385 182.982633,216.414385 C184.32008,216.414385 185.360302,215.457975 186.103329,213.545127 C186.846355,211.632278 187.217863,208.874474 187.217863,205.271633 Z M232.325541,184.267545 L232.325541,212.347281 C232.325541,214.761556 231.981896,216.878658 231.294596,218.69865 C230.607297,220.518642 229.641377,222.041469 228.396807,223.267178 C227.152238,224.492887 225.656919,225.42144 223.910807,226.052866 C222.164695,226.684292 220.232855,227 218.115229,227 C215.997603,227 214.056476,226.684292 212.291787,226.052866 C210.527099,225.42144 209.022493,224.492887 207.777924,223.267178 C206.533354,222.041469 205.558147,220.518642 204.852271,218.69865 C204.146396,216.878658 203.793464,214.761556 203.793464,212.347281 L203.793464,184.267545 L215.161713,184.267545 L215.161713,211.344433 C215.161713,213.201568 215.384618,214.510828 215.830434,215.272253 C216.27625,216.033678 217.03784,216.414385 218.115229,216.414385 C219.192617,216.414385 219.935633,216.033678 220.344297,215.272253 C220.752962,214.510828 220.957291,213.201568 220.957291,211.344433 L220.957291,184.267545 L232.325541,184.267545 Z" id="checkout-nikebyyou" transform="translate(160.500000, 181.000000) rotate(-360.000000) translate(-160.500000, -181.000000) "></path>
        </g>
    </g>
</svg>