<?xml version="1.0" encoding="UTF-8"?>
<svg width="65px" height="40px" viewBox="0 0 65 40" version="1.1" xmlns="http://www.w3.org/2000/svg" xmlns:xlink="http://www.w3.org/1999/xlink">
    <!-- Generator: Sketch 56.3 (81716) - https://sketch.com -->
    <title>icon_wavynyc</title>
    <desc>Created with Sketch.</desc>
    <g id="Production" stroke="none" stroke-width="1" fill="none" fill-rule="evenodd">
        <g id="Artboard" transform="translate(-746.000000, -613.000000)" fill="#231F20">
            <path d="M770.19158,645.157635 C769.829947,645.199541 769.472301,645.278187 769.120349,645.402756 C768.231928,645.716763 767.466519,646.299427 766.717056,646.873481 C762.554004,650.064643 758.386397,654.415393 752.631021,652.552016 C747.465648,650.879225 745.26111,645.277612 746.217871,640.199537 C747.108001,635.477948 749.504461,631.244879 752.786494,627.812614 C753.353717,627.219617 753.926635,626.621453 754.607758,626.165081 C755.219402,625.754059 756.046317,625.181727 756.823686,625.365999 C757.581692,625.545677 757.579414,626.31089 757.443873,626.937757 C757.259354,627.795392 756.844188,628.560605 756.533241,629.372317 C755.780361,631.334431 755.023494,633.538222 755.368042,635.669682 C755.771249,638.167388 758.06349,639.875197 760.455393,638.653611 C761.380832,638.181739 762.138838,637.440636 762.921902,636.753495 C764.657171,635.231105 766.619101,633.909634 768.828195,633.262102 C770.44273,632.788508 772.203057,632.698956 773.833539,633.14844 C775.631453,633.643848 776.794943,634.907339 778.264255,635.970486 C781.501298,638.313772 784.79643,636.012966 787.74075,633.872321 C789.810316,632.367727 791.868492,630.836153 794.000134,629.462443 C797.822055,626.99918 801.995357,625.138099 806.28199,624.590453 C807.65107,624.415366 809.017303,624.406755 810.324877,624.956125 C810.472378,625.018122 810.620448,625.111119 810.739474,625.229374 C811.115344,625.604231 811.084591,626.17771 810.646645,626.464737 C810.376132,626.642119 810.061768,626.734542 809.759363,626.821224 C807.74333,627.397573 805.727866,627.845909 803.799536,628.697804 C800.672407,630.080699 798.076052,632.301137 795.550885,634.574388 C794.15276,635.833861 792.84063,637.231107 791.488635,638.566355 C789.195255,640.833292 786.865997,643.864867 783.946166,645.33387 C781.13454,646.747763 778.313802,646.811483 775.300003,646.003216 C773.62681,645.553732 771.868191,644.962457 770.19158,645.157635 Z M764.715716,626.726849 C764.674711,626.276792 764.780069,624.304344 764.178676,624.344528 C763.974795,624.357731 763.801097,624.530521 763.656444,624.706756 C762.346022,626.307216 762.274265,628.720537 762.320964,630.77737 C762.360829,632.508715 762.208203,635.396777 760.601641,636.237191 C759.83794,636.63788 758.939268,636.863483 758.226822,636.466238 C756.22161,635.345686 757.973964,630.480584 758.481389,628.54258 C759.485989,624.701015 760.947328,619.936373 763.642776,617.315245 C764.821073,616.170009 767.763115,615.298596 768.347423,617.622364 C768.456767,618.056922 768.459614,618.522479 768.468157,618.980574 C768.48752,619.954742 768.514286,620.930633 768.614519,621.896191 C768.657231,622.307787 768.428292,623.26703 769.042214,623.31525 C769.322408,623.337639 769.579253,623.152219 769.762063,622.937523 C769.999545,622.659108 770.157296,622.321564 770.311631,621.989187 C770.660166,621.237177 770.975669,620.502963 771.245043,619.730287 C771.943251,617.725693 772.929627,614.374944 774.971857,613.892739 C776.294238,613.580454 776.843237,614.652212 776.732184,615.977701 C776.666122,616.767024 776.397887,617.573569 776.09776,618.303191 C774.600542,621.946707 773.086239,625.95934 771.159048,629.31583 C770.648776,630.205613 769.84464,630.839368 768.968179,631.218817 C767.762545,631.741779 766.334237,631.506417 765.50903,630.327886 C764.830755,629.359458 764.825629,627.944991 764.715716,626.726849 Z M781.271846,635.025938 C780.598696,635.207339 779.919282,634.935238 779.305929,634.50068 C777.845729,633.466236 776.419129,632.299185 775.068273,631.123524 C774.738532,630.836497 774.408791,630.528805 774.227121,630.129838 C774.050575,629.742352 774.029504,629.300331 774.066521,628.876105 C774.116068,628.303774 774.272681,627.727998 774.611534,627.265886 C774.949248,626.803773 775.487996,626.469674 776.057496,626.472544 C776.609343,626.47484 777.117907,626.783107 777.5251,627.157963 C777.931724,627.533394 778.26659,627.982304 778.670366,628.361753 C779.038834,628.707907 779.463112,628.993212 779.92156,629.203316 C780.737655,629.577598 781.663094,629.555784 782.398319,629.005267 C783.323758,628.312385 783.486635,626.958193 782.88809,626.003542 C782.399458,625.223978 781.697264,624.876101 780.970011,624.582186 C780.189225,624.265883 779.38509,624.027651 778.596901,623.733735 C776.58941,622.985744 776.365596,620.523055 777.090571,618.396187 C777.611095,616.867483 778.280258,615.149342 779.20285,613.906516 C779.405592,613.633841 779.777476,613.448996 780.088993,613.397331 C781.27925,613.199857 782.514497,614.038549 782.292392,615.589641 C782.143183,616.634992 781.776424,617.520756 781.429029,618.486314 C781.112386,619.368634 781.433585,620.289989 782.205828,620.579886 C782.764508,620.789416 783.350525,620.83247 783.930277,620.47139 C784.233251,620.281379 784.388155,620.04085 784.453078,619.649346 C784.602288,618.751526 784.745232,617.848541 784.957087,616.967943 C785.241268,615.785967 785.939476,614.585047 786.92756,614.078732 C787.972594,613.543141 789.317755,613.943256 789.53986,615.381259 C789.657747,616.151639 789.565488,616.908815 789.355342,617.632122 C788.797801,619.555775 788.190713,621.461058 787.610391,623.377248 C787.308556,624.373805 786.994761,625.368065 786.733929,626.378973 C786.196321,628.463361 785.576134,630.510435 784.635888,632.401941 C783.896107,633.890461 782.789566,634.765892 781.271846,635.025938 Z M792.495855,628.017895 C790.876764,628.322144 789.103338,628.009285 788.900596,626.016171 C788.894331,625.95647 788.889206,625.896768 788.885219,625.836493 C788.722911,623.489189 789.289565,620.692975 790.324348,618.644753 C791.205935,616.900779 792.528886,615.381833 793.998198,614.350834 C795.724925,613.139007 797.693689,612.861739 799.631701,613.056917 C800.238789,613.118341 800.893145,613.403646 801.378929,613.823853 C802.136935,614.479996 802.34822,615.874371 801.353871,616.751525 C800.721725,617.30893 800.044589,617.531663 799.284875,617.412834 C797.796199,617.180343 795.657154,617.296301 794.346163,618.384132 C793.622327,618.984018 792.994737,620.004685 792.915577,621.061517 C792.83243,622.171162 793.627453,622.695847 794.465189,622.720531 C796.142938,622.769326 797.88675,621.997224 799.331004,620.974261 C800.854419,619.895041 802.699032,618.605143 804.501503,618.761285 C805.99986,618.891021 807.224286,620.540277 806.239619,622.307213 C805.686634,623.143609 804.811311,623.440394 803.896693,623.682645 C802.124976,624.15222 800.381164,624.723403 798.672092,625.387009 C797.050723,626.01732 795.551227,626.858308 793.964028,627.562671 C793.530068,627.754979 793.020934,627.918584 792.495855,628.017895 Z" id="icon_wavynyc"></path>
        </g>
    </g>
</svg>