<?xml version="1.0" encoding="UTF-8"?>
<svg width="70px" height="33px" viewBox="0 0 70 33" version="1.1" xmlns="http://www.w3.org/2000/svg" xmlns:xlink="http://www.w3.org/1999/xlink">
    <!-- Generator: Sketch 56.3 (81716) - https://sketch.com -->
    <title>icon_wavyswoosh</title>
    <desc>Created with Sketch.</desc>
    <g id="Production" stroke="none" stroke-width="1" fill="none" fill-rule="evenodd">
        <g id="Artboard" transform="translate(-606.000000, -615.000000)" fill="#231F20">
            <path d="M675.365592,616.902396 C674.33828,617.322275 668.178407,615.930675 654.825748,623.277362 C653.497603,624.007552 652.136655,624.691355 650.862915,625.50872 C649.402756,626.446051 647.898592,627.319399 646.528042,628.39509 C645.583939,629.134077 644.58543,629.802685 643.618924,630.51368 C643.196478,630.823991 642.791634,631.156695 642.384389,631.487 C641.444287,632.25238 632.545715,639.55348 631.876042,640.03974 C630.893534,640.752335 629.923028,641.481725 628.943721,642.200718 C628.554879,642.487036 628.168437,642.780552 627.761192,643.039677 C626.597865,643.778665 623.505527,645.754096 623.103083,645.962836 C619.572298,647.795909 615.051804,648.273372 612.755553,647.86309 C609.744024,647.324844 607.529382,644.192945 607.290156,643.856242 C606.586079,642.866927 606.31725,641.868814 606.097226,640.655563 C605.911606,639.629458 606.026018,638.618549 606.156432,637.609239 C606.247642,636.902243 606.378056,636.193646 606.578078,635.507444 C607.473376,632.432328 610.334489,628.858956 611.004962,628.056787 C611.3498,627.644106 611.705838,627.238623 612.078679,626.850734 C612.586735,626.325285 613.09479,625.796637 613.64045,625.311177 C614.431736,624.60498 615.227023,623.905181 616.138323,623.340544 C616.648778,623.023835 617.188837,622.851085 617.742498,622.610354 C619.364275,621.904957 620.006745,623.624462 620.041949,624.218691 C620.080353,624.861706 619.893933,625.450337 619.554696,625.987782 C618.94903,626.945107 617.840909,629.33402 617.793703,629.518767 C617.756899,629.665125 616.865602,632.784227 618.181746,634.334981 C618.663398,634.902818 619.248262,635.20913 619.949139,635.287507 C620.674018,635.368284 621.410098,635.438664 622.139778,635.390677 C624.25841,635.250718 628.068426,634.107047 629.073335,633.5744 C629.680602,633.252093 630.332673,633.016161 630.954341,632.718646 C631.451995,632.481114 631.936848,632.216391 632.420901,631.952467 C633.148181,631.55658 633.859458,631.127904 634.597139,630.753611 C635.70766,630.190573 636.766176,629.545959 637.81109,628.873352 C638.251138,628.590234 638.723189,628.356701 639.172039,628.086379 C640.107341,627.52574 641.033842,626.950705 641.969944,626.390866 C642.527605,626.058162 643.094867,625.742253 643.658929,625.420745 C644.545425,624.914491 645.425522,624.39544 646.32242,623.906781 C647.266523,623.392529 648.226628,622.905469 649.181932,622.411211 C649.879608,622.050515 650.586885,621.706614 651.281361,621.33792 C652.525497,620.67731 653.794436,620.069485 655.096978,619.534439 C656.053082,619.140952 657.002786,618.72907 657.973292,618.371573 C667.887975,614.720624 674.206265,614.934962 675.110364,615.048529 C676.074469,615.169294 676.392904,616.483316 675.365592,616.902396 Z M664.552731,627.702809 C664.807159,627.843569 665.160797,627.693212 665.342417,627.366106 C665.524037,627.0382 665.465631,626.658309 665.210403,626.51755 C664.955975,626.375991 664.602336,626.527147 664.420716,626.854253 C664.239097,627.181359 664.298303,627.56125 664.552731,627.702809 Z M667.224223,624.607699 C667.47145,624.663683 668.533966,624.912412 668.395551,626.755881 C668.367547,627.136572 668.377149,628.089098 666.345727,629.182383 C665.902478,629.420715 665.452829,629.648649 664.966376,629.791808 C664.858364,629.822999 664.758353,629.880583 664.619138,629.941365 C664.757553,630.022942 664.860764,630.106917 664.979177,630.148505 C665.1888,630.222084 665.356019,630.360444 665.531238,630.485209 C665.811268,630.685151 666.044094,630.937079 666.278519,631.186607 C666.705766,631.641676 667.085007,632.135134 667.378639,632.684576 C667.556259,633.01888 667.744279,633.362781 667.759481,633.756268 C667.773883,634.120963 667.774683,634.489657 667.56906,634.816763 C667.489852,634.942326 667.405842,635.07029 667.265027,635.130272 C667.053004,635.219847 666.858583,635.162263 666.693765,635.015106 C666.419335,634.769576 666.203311,634.47766 666.028892,634.153753 C665.850473,633.822649 665.677654,633.488345 665.492033,633.161239 C665.27841,632.784547 664.224695,631.881607 663.99747,631.739248 C663.871856,631.66167 663.465412,631.474524 663.393404,631.461728 C663.306195,631.445732 663.224586,631.456129 663.17418,631.551302 C663.090971,631.706457 662.728532,632.475836 662.635721,632.707769 C662.634121,632.713368 662.002852,634.06098 661.88764,634.250525 C661.811631,634.376889 661.749225,634.51365 661.658815,634.628817 C661.522,634.803166 661.360382,634.958322 661.217166,635.127873 C660.757116,635.670117 659.941027,635.386999 660.187454,634.331302 C660.267463,633.9906 660.347471,633.655497 660.461084,633.325991 C660.725113,632.560612 660.981141,631.792033 661.234768,631.022654 C661.325978,630.747533 661.399586,630.466014 661.486796,630.188494 C661.571605,629.92297 661.657215,629.657447 661.754825,629.395922 C661.926844,628.936054 662.105263,628.478586 662.286083,628.021917 C662.478104,627.538856 662.670925,627.054995 662.949356,626.613522 C663.124575,626.335202 663.274991,626.03129 663.547821,625.827349 C663.716639,625.701785 663.898259,625.592216 664.081479,625.488246 C664.279101,625.374679 664.482323,625.26751 664.688746,625.171537 C666.120102,624.510927 667.067405,624.572509 667.224223,624.607699 Z M670.115418,632.432728 C670.949109,629.713511 671.14033,624.57179 667.798365,623.42252 C664.699627,622.357227 662.275362,624.748539 660.254341,626.758361 C659.294236,628.202745 658.606961,629.787089 658.496549,631.561779 C658.302928,634.660088 660.017515,637.539259 663.329077,637.756797 C666.590233,637.971135 669.209719,635.387878 670.115418,632.432728 Z M669.717775,622.225265 C673.249361,624.578988 673.081342,630.524477 671.622783,633.99228 C670.116218,637.576849 666.472621,640.259277 662.472184,639.565077 C658.543754,638.883673 656.506732,635.17194 656.991585,631.411422 C657.214009,629.687918 657.556447,627.934822 658.481348,626.550421 C660.306347,624.023947 661.201645,623.029833 664.227575,621.57985 C666.030972,620.98882 667.983986,621.069597 669.717775,622.225265 Z" id="icon_wavyswoosh"></path>
        </g>
    </g>
</svg>