<?xml version="1.0" encoding="UTF-8"?>
<svg width="55px" height="37px" viewBox="0 0 55 37" version="1.1" xmlns="http://www.w3.org/2000/svg" xmlns:xlink="http://www.w3.org/1999/xlink">
    <!-- Generator: Sketch 56.3 (81716) - https://sketch.com -->
    <title>icon_nikeair</title>
    <desc>Created with Sketch.</desc>
    <g id="Production" stroke="none" stroke-width="1" fill="none" fill-rule="evenodd">
        <g id="Artboard" transform="translate(-474.000000, -613.000000)" fill="#231F20">
            <path d="M483.432413,622.514755 C483.422121,622.535681 483.403354,622.557206 483.40396,622.577534 C483.411224,623.296807 483.230216,623.989175 483.108534,624.69051 C482.962637,625.53594 482.852458,626.387349 482.716248,627.234572 C482.653893,627.622011 482.557638,628.004068 482.492257,628.390909 C482.461382,628.573866 482.452907,628.763401 482.45775,628.949945 C482.46562,629.234545 482.483176,629.520341 482.51405,629.803745 C482.578221,630.389687 482.804633,630.909859 483.206,631.348717 C483.377928,631.537055 483.541987,631.721208 483.660641,631.954987 C483.811986,632.251545 483.552883,632.738235 483.232637,632.818354 C482.898467,632.902657 482.568535,632.928367 482.228916,632.932552 C481.567235,632.941521 480.937034,633.070667 480.335891,633.369019 C479.676027,633.69607 479.086386,634.114599 478.562732,634.615639 C477.937374,635.214136 477.347733,635.847312 476.743563,636.466735 C476.697554,636.513969 476.653362,636.563595 476.616433,636.617406 C476.371254,636.977341 476.02195,637.226067 475.67991,637.48436 C475.494663,637.624268 475.297915,637.736673 475.080583,637.815596 C474.60657,637.986595 474.176144,637.73488 474.050225,637.322329 C473.988476,637.118446 473.988476,636.879884 474.024194,636.667629 C474.162221,635.84193 474.463095,635.062868 474.790606,634.295165 C475.02852,633.737923 475.273699,633.18367 475.529775,632.634201 C475.67204,632.32987 475.861524,632.046466 475.997734,631.740341 C476.307689,631.045582 476.600693,630.342453 476.895514,629.641117 C477.045043,629.286562 477.20002,628.932606 477.325334,628.569681 C477.601993,627.764311 477.87623,626.957745 478.123831,626.143406 C478.371431,625.328469 478.563943,624.498585 478.693494,623.656145 C478.718315,623.494712 478.766745,623.337464 478.79883,623.177227 C478.967731,622.318644 479.155399,621.46305 479.296453,620.599683 C479.403605,619.946777 479.460511,619.284903 479.521049,618.62542 C479.555556,618.243362 479.456273,617.87386 479.298874,617.528275 C479.171139,617.246664 478.898113,617.119909 478.613584,617.053542 C478.373853,616.997938 478.122015,616.996742 477.87623,616.962662 C477.428854,616.901078 476.988137,616.946519 476.541366,616.993753 C476.190851,617.030224 475.827017,617.015277 475.477107,616.966847 C474.942556,616.892708 474.730673,616.532772 474.780314,616.038907 C474.801503,615.82187 474.948005,615.637119 475.133856,615.526508 C475.473475,615.324418 475.822174,615.132492 476.182981,614.971657 C476.934258,614.638029 477.731544,614.442516 478.530647,614.255374 C478.690467,614.217706 478.847866,614.148948 479.009503,614.138783 C479.189301,614.126825 479.447798,614.104105 479.618515,614.102311 C480.096161,614.261353 480.371003,614.433548 480.726362,614.638627 C481.032684,614.815007 481.329321,615.011716 481.612639,615.222775 C482.081809,615.572546 482.535239,615.942048 482.997144,616.300189 C483.411224,616.621859 483.751448,617.0087 484.055955,617.430817 C484.492434,618.036489 484.949496,618.627811 485.373263,619.241854 C485.576065,619.536618 485.742545,619.860082 485.889652,620.186535 C486.274069,621.037346 486.644562,621.894733 487.008395,622.753915 C487.113126,623.001445 487.177297,623.265716 487.261445,623.522215 C487.273552,623.559285 487.29353,623.593365 487.332879,623.677669 C487.360727,623.564666 487.387364,623.500093 487.390996,623.434324 C487.414606,623.000847 487.451534,622.567968 487.449113,622.135687 C487.444269,621.341676 487.381915,620.551851 487.26205,619.765016 C487.193642,619.320777 487.159741,618.872352 487.045929,618.433494 C486.862499,617.729169 486.549517,617.089416 486.168733,616.468797 C485.907208,616.043093 485.552455,615.723814 485.189227,615.403938 C485.023958,615.259247 484.829026,615.14445 484.640147,615.028458 C484.391335,614.839521 484.267232,614.651183 484.327165,614.279888 C484.366515,614.09693 484.467008,613.982732 484.611089,613.87212 C484.880483,613.664649 485.19407,613.618611 485.515527,613.571377 C486.023441,613.496639 489.952966,613.05539 490.549266,613.02968 C490.830163,613.017722 491.113481,612.984838 491.391956,613.008156 C491.600812,613.025495 491.833278,613.051802 492.007023,613.179155 C492.029422,613.185732 492.046372,613.20905 492.06635,613.2234 C492.281865,613.378853 492.324242,614.052088 492.068771,614.251188 C491.591126,614.47002 490.898571,614.713962 490.749042,615.320232 C490.696979,615.421277 490.653392,615.530095 490.628571,615.640706 C490.497809,616.215886 490.360993,616.789869 490.251419,617.368635 C490.040141,618.49149 489.942675,619.62451 489.982025,620.767693 C489.995948,621.176656 489.989895,621.586815 490.013504,621.99518 C490.036509,622.395773 490.095836,622.793974 490.121262,623.193968 C490.16606,623.900088 490.328908,624.584682 490.481464,625.271669 C490.546845,625.565835 490.634019,625.855218 490.692741,626.150581 C490.773257,626.55476 490.95245,626.921871 491.116508,627.295558 C491.273907,627.653699 491.445229,628.00646 491.585072,628.371179 C491.702516,628.676107 491.784848,628.99419 491.878682,629.307489 C491.925296,629.465334 492.032448,629.837826 492.040318,629.910769 C492.057874,630.079377 491.869601,630.3006 491.695252,630.281467 C491.592337,630.270107 491.488211,630.233037 491.394377,630.186999 C491.049916,630.017195 490.697584,630.044699 490.360387,630.173247 C489.559469,630.478176 488.862676,630.974432 488.12956,631.40492 C487.595615,631.718219 487.048351,632.006406 486.462948,632.219259 C486.269226,632.289811 486.080953,632.375908 485.889047,632.452439 C485.414429,632.585173 484.910147,632.110441 484.908936,631.789369 C484.90833,631.529881 484.873218,631.270392 484.869586,631.010904 C484.864743,630.627053 484.861111,630.242603 484.881088,629.859948 C484.921649,629.089256 484.878061,628.323945 484.786649,627.557438 C484.732165,627.103632 484.730349,626.64325 484.706133,626.186454 C484.671021,625.537136 484.563264,624.903363 484.328981,624.292907 C484.267232,624.13267 484.221829,623.967052 484.16795,623.804424 C484.022659,623.363772 483.764767,622.980518 483.531695,622.584709 C483.510507,622.550031 483.502637,622.50758 483.488713,622.468119 C483.469946,622.483664 483.45118,622.499209 483.432413,622.514755 Z M503.031305,613.848144 C503.459914,613.810477 506.987466,613.685516 507.649753,613.696278 C507.857398,613.699268 508.064438,613.699268 508.271478,613.699865 C508.387712,613.699865 508.503945,613.692691 508.618967,613.699268 C508.859908,613.713617 509.13354,613.713617 509.265513,613.940221 C509.423518,614.211069 509.498585,614.520781 509.383563,614.837668 C509.359347,614.905828 509.322419,614.977576 509.270356,615.02481 C509.036679,615.23826 508.785447,615.409857 508.450671,615.449319 C507.743587,615.533025 507.041345,615.649615 506.356054,615.845726 C506.12601,615.912093 505.902019,616.000582 505.679844,616.089071 C505.592064,616.123749 505.268791,617.085769 505.174352,617.441519 C505.017558,618.031048 504.975787,618.636122 504.894061,619.235815 C504.824442,619.746421 504.802648,620.2648 504.972155,620.768829 C504.985473,620.807095 505.000607,620.844164 505.027244,620.914119 C505.273029,620.776004 505.512154,620.652239 505.739777,620.510537 C506.026122,620.331167 507.870111,619.147924 509.3315,617.077399 C509.720154,616.572174 510.03919,616.031075 510.352171,615.482801 C510.473853,615.269949 510.616117,615.068457 510.751723,614.863378 C510.778359,614.823318 511.390399,613.816456 513.962055,613.821239 C514.431831,613.788355 514.867099,613.840372 515.333848,613.930655 C516.025798,614.065182 516.223757,614.220636 516.399317,614.88251 C516.507075,615.28968 516.450775,615.385942 516.079071,615.601185 C515.779408,615.775174 513.412975,616.853784 512.83181,617.228667 C512.233694,617.614312 511.644053,618.00773 511.113135,618.478875 C510.774727,618.77902 510.475064,619.122812 510.138472,619.425349 C509.763741,619.761369 509.505244,620.178105 509.232217,620.587666 C509.123249,620.752088 508.997935,620.905748 508.896231,621.073758 C508.792106,621.246551 508.812689,621.277043 508.991881,621.373903 C509.151096,621.460001 509.304258,621.558654 509.45984,621.651926 C509.488293,621.668667 510.982978,622.571495 512.583604,624.951135 C513.052169,625.733785 513.65876,626.402236 514.312571,627.030629 C514.44636,627.159177 514.618288,627.250655 514.777503,627.350505 C515.123175,627.56814 515.471874,627.779796 515.819363,627.994442 C515.854475,628.015967 516.309721,628.320297 516.065753,628.701159 C515.944677,628.855417 515.818152,628.976193 515.637143,629.047941 C515.347771,629.162737 515.072323,629.279328 514.74118,629.294275 C513.943894,629.330149 513.273132,629.037777 512.618111,628.641967 C512.260331,628.426126 511.97217,628.131959 511.641026,627.88682 C511.159749,627.530472 510.768068,627.082646 510.372754,626.64319 C509.755266,625.956203 509.090558,625.315853 508.422218,624.680884 C508.083205,624.359214 507.690313,624.097932 507.27139,623.876112 C507.012892,623.739193 506.395404,623.794797 506.19018,624.126632 C505.946212,624.521245 505.853589,624.963691 506.040046,625.420486 C506.089687,625.542457 506.142355,625.663233 506.207131,625.777432 C506.337893,626.007623 506.52435,626.185797 506.733207,626.355002 C507.265336,626.78549 507.893721,627.049761 508.478519,627.38877 C508.892599,627.628528 509.313944,627.856327 509.724392,628.102064 C509.871499,628.190553 509.994997,628.31671 510.132418,628.422538 C510.215355,628.485915 510.3104,628.534943 510.386678,628.605495 C510.455086,628.669471 510.519862,628.7466 510.558606,628.830305 C510.591297,628.901455 510.587059,628.989945 510.594929,629.071259 C510.61309,629.258401 510.485355,629.388743 510.29466,629.360642 C509.457419,629.236877 504.51933,630.377071 504.322581,630.429088 C503.964196,630.524154 503.602784,630.609654 503.23895,630.683195 C503.174174,630.696349 503.058547,630.652105 503.024645,630.598892 C502.805498,630.448221 502.72135,630.32625 502.573032,630.186939 C502.219489,629.854507 501.952517,629.467666 501.787248,629.012665 C501.750925,628.912816 501.707943,628.81476 501.66375,628.7179 C501.318078,627.957372 501.150993,627.148415 501.009939,626.33288 C500.911262,625.76069 500.804715,625.188501 500.735702,624.611528 C500.639446,623.799581 500.552271,622.984644 500.504446,622.167913 C500.470545,621.588549 500.503841,621.004999 500.515949,620.423841 C500.529872,619.793655 500.543191,619.162274 500.678796,618.542252 C500.834379,617.830154 500.977248,617.112077 501.255118,616.435853 C501.456104,615.944977 501.71097,615.475029 501.956149,615.003286 C502.133525,614.662483 502.328458,614.330649 502.527023,614.001805 C502.588771,613.900162 502.913255,613.858907 503.031305,613.848144 Z M528.902726,616.407034 C529.011089,616.637823 529.045596,616.881168 528.919071,617.117338 C528.826448,617.291327 528.669654,617.41569 528.506202,617.518529 C528.29674,617.650067 528.077592,617.770244 527.850574,617.868898 C527.694992,617.93646 527.520642,617.965757 527.352346,617.999838 C527.020598,618.065607 526.692481,617.991467 526.36376,617.958583 C526.017482,617.923905 522.886454,617.387589 522.604952,617.415092 C522.118226,617.462924 521.638159,617.525704 521.177465,617.709259 C520.556344,617.957985 519.983049,618.264707 519.520538,618.762159 C519.179104,619.12927 518.791055,619.455125 518.510158,619.875448 C518.478678,619.922084 518.448409,619.969916 518.404217,620.037479 C518.470809,620.070961 518.522871,620.106237 518.581593,620.125968 C519.122198,620.305337 522.607979,620.83388 523.203068,620.932534 C523.46883,620.976181 523.735803,621.029394 523.99309,621.107718 C524.111139,621.143592 524.246139,621.227896 524.305466,621.328941 C524.419883,621.523258 524.711676,622.613827 523.86596,622.894242 C523.690399,622.961206 523.331409,623.029367 523.146162,623.058664 C522.636432,623.13938 518.41027,622.70112 518.104553,622.652092 C517.996796,622.714872 518.005876,623.061055 518.102737,623.256568 C518.236526,623.524427 518.899418,625.186587 520.921389,626.515718 C521.230738,626.699871 521.565514,626.843964 521.891209,627.000614 C522.069796,627.086114 522.253831,627.162047 522.436051,627.240372 C522.951835,627.463388 523.473673,627.673251 523.981587,627.91241 C524.353897,628.088193 524.715309,628.290283 525.06764,628.501939 C525.330375,628.647827 525.557393,628.842742 525.717819,629.118971 C525.854029,629.334215 525.916989,630.615513 523.809054,630.536591 C523.154032,630.51686 522.505064,630.462451 521.878496,630.234053 C521.333048,630.034953 520.815447,629.783835 520.305717,629.511193 C520.153766,629.429879 519.998184,629.35275 519.838969,629.286383 C519.400673,629.102828 519.016862,628.831382 518.636683,628.557544 C518.053701,628.136623 517.58998,627.590143 517.093568,627.078341 C516.66738,626.638885 516.319286,626.14502 515.973008,625.646372 C515.773233,625.358185 515.52987,625.098696 515.328884,624.810509 C515.090969,624.469706 514.855476,624.123522 514.658727,623.758804 C514.348167,623.183027 514.078167,622.586323 513.776083,622.006361 C513.653796,621.771387 513.650163,621.517877 513.598101,621.271543 C513.567832,621.130439 513.553908,620.985149 513.547249,620.840457 C513.53272,620.539116 513.636845,620.259897 513.74884,619.988451 C513.925006,619.562747 514.187741,619.187266 514.528571,618.874564 C514.818548,618.608499 515.125476,618.360969 515.425744,618.106264 C515.701798,617.871887 515.972403,617.629738 516.258143,617.40732 C516.621976,617.123317 516.996102,616.851871 517.370832,616.581621 C517.978634,616.143958 518.642131,615.779838 519.201503,615.277004 C519.390382,615.107201 519.552624,614.907502 519.723341,614.718566 C519.860157,614.567298 519.934013,613.804976 520.049036,613.687788 C520.170112,613.565219 520.364439,613.467163 520.592062,613.554456 C520.961949,613.696756 528.332457,615.926921 528.902726,616.407034 Z M498.568984,618.695553 C498.567773,618.760724 498.568379,618.828287 498.553244,618.891066 C498.296563,619.966687 498.23542,621.061441 498.242684,622.159782 C498.247527,622.891611 498.369209,623.610286 498.558693,624.317601 C498.703379,624.855112 498.838984,625.395015 498.987908,625.931929 C499.061764,626.19919 499.145912,626.465853 499.243378,626.725939 C499.418938,627.193496 499.618109,627.652085 499.788826,628.121436 C499.964386,628.605137 500.808892,630.987167 500.489857,631.124684 C500.235597,631.24247 494.034684,633.738102 493.440806,634.01493 C492.495807,634.515371 491.59379,634.331218 491.297153,633.631078 C490.976302,632.87354 491.503588,632.226613 491.970336,632.049635 C492.309955,631.920488 492.642309,631.774003 492.979506,631.637682 C493.20168,631.547997 493.437173,631.483424 493.644214,631.368627 C493.804639,631.278942 493.960222,631.174908 494.118832,631.078048 C494.284101,630.977003 494.356747,630.828126 494.372486,630.629026 C494.405177,630.240391 494.379146,629.861323 494.285917,629.483451 C494.147285,628.919632 494.023787,628.352225 493.883339,627.788406 C493.728362,627.16958 493.557644,626.55494 493.403272,625.936114 C493.348183,625.714293 493.321546,625.485896 493.280985,625.260488 C493.20047,624.81027 493.128429,624.358258 493.037622,623.910431 C492.942578,623.441678 492.949237,622.966946 492.924416,622.494606 C492.905044,622.119723 492.886883,621.744242 492.895963,621.369957 C492.904439,621.011217 492.943788,620.652478 492.978295,620.294934 C493.012196,619.942173 493.104214,619.602567 493.244662,619.276712 C493.285828,619.181646 493.839752,618.248923 494.103697,618.138311 C496.017911,617.373 498.572616,618.518575 498.568984,618.695553 Z M499.976312,614.897697 C499.991447,615.047172 499.938173,615.221758 499.843734,615.398737 C499.656066,615.749703 498.737704,617.163735 498.601493,617.128459 C498.422301,617.083019 497.938601,616.939523 497.781808,616.856415 C497.390127,616.649542 495.659949,616.403805 494.854793,616.510231 C494.383807,616.552682 494.254256,616.514417 494.108964,616.323687 C494.087171,616.294988 494.079906,616.252537 494.083538,616.217859 C494.116834,615.905755 495.188963,614.207721 495.412954,614.036124 C495.445644,614.011012 496.405778,613.402351 498.871493,613.768265 C499.275282,613.873495 499.651828,614.019383 499.860079,614.357794 C499.96481,614.528793 499.978734,614.551513 499.976312,614.897697 Z M517.081279,632.806037 C516.455921,633.033239 512.789736,632.080187 504.623153,636.156067 C503.811337,636.561443 502.98015,636.938119 502.198604,637.39611 C501.303246,637.921066 500.382462,638.407756 499.536746,639.016417 C498.954975,639.434947 498.341119,639.810427 497.746635,640.211618 C497.486927,640.386802 497.236905,640.575738 496.985672,640.762881 C496.405112,641.196956 490.911889,645.338604 490.50023,645.61304 C489.895455,646.015426 489.297339,646.427379 488.695591,646.832755 C488.45586,646.994188 488.217946,647.160404 487.967924,647.305095 C487.25418,647.719439 485.357523,648.826151 485.111133,648.941546 C482.954162,649.954387 480.218447,650.19833 478.863,649.851548 C477.244213,649.437204 475.805223,647.566975 475.669013,647.362494 C475.26704,646.761007 475.127197,646.164303 475.021256,645.440247 C474.931659,644.827998 475.021256,644.231295 475.120538,643.635787 C475.190762,643.218453 475.283991,642.80112 475.418385,642.398136 C476.020134,640.594273 477.812665,638.535706 478.231589,638.074726 C478.447709,637.836762 478.669279,637.603581 478.901745,637.382358 C479.217148,637.081017 479.533762,636.77848 479.870959,636.501653 C480.360712,636.099864 480.852886,635.701663 481.411047,635.385972 C481.724029,635.208994 482.05154,635.118114 482.389342,634.986576 C483.377323,634.602126 483.726022,635.634699 483.735103,635.988057 C483.744184,636.369517 483.620081,636.715103 483.405171,637.026608 C483.021359,637.580861 482.306405,638.974564 482.273714,639.083382 C482.248894,639.168881 481.648356,640.999051 482.405082,641.946124 C482.681741,642.292307 483.026202,642.486027 483.44452,642.547013 C483.878578,642.61039 484.31869,642.66719 484.756985,642.654037 C486.031311,642.615771 488.341443,642.017274 488.955299,641.722509 C489.326398,641.544335 489.722922,641.417581 490.10189,641.254354 C490.405791,641.124012 490.701822,640.977527 490.998459,640.831042 C491.442808,640.611015 491.878076,640.371855 492.329085,640.16558 C493.007111,639.85527 493.656079,639.494737 494.297177,639.11806 C494.567177,638.959617 494.855338,638.83047 495.130181,638.680398 C495.703476,638.367098 496.271323,638.046027 496.844618,637.733325 C497.186053,637.547976 497.532936,637.372792 497.878608,637.193422 C498.421029,636.911812 498.959818,636.622428 499.508293,636.35158 C500.085826,636.066382 500.671834,635.797925 501.255421,635.524685 C501.682214,635.324987 502.113245,635.136051 502.538222,634.932765 C503.297975,634.56685 504.072256,634.233223 504.865305,633.942644 C505.447076,633.729791 506.025819,633.505579 506.61546,633.314251 C512.641418,631.356729 516.426862,631.615619 516.967467,631.701717 C517.543184,631.793793 517.706637,632.578835 517.081279,632.806037 Z M507.576078,646.19366 C507.88906,645.534177 508.214754,644.881271 508.528947,644.222984 C508.853431,643.542575 509.170045,642.858578 509.492713,642.177571 C509.706412,641.725559 509.904977,641.265774 510.146524,640.82871 C510.478877,640.227223 510.84937,639.646065 511.195043,639.051155 C511.361522,638.763565 511.569168,638.512448 511.80345,638.279267 C512.053472,638.029345 512.769637,638.166862 513.067485,638.3552 C513.683157,638.648769 513.517888,639.56774 513.415578,639.75847 C513.335668,639.908543 513.270892,640.066388 513.203695,640.223038 C513.026319,640.636186 508.90731,648.360447 508.690583,648.572702 C508.586458,648.674344 508.156032,649.60348 507.214666,649.080318 C506.583254,648.729351 507.474979,646.406512 507.576078,646.19366 Z M504.743079,641.055194 C505.092989,641.28957 505.623302,641.118571 505.927808,640.674332 C506.232315,640.230093 506.195992,639.680623 505.846082,639.446845 C505.496172,639.212468 504.965859,639.38287 504.661352,639.827109 C504.35624,640.271348 504.393169,640.821415 504.743079,641.055194 Z M507.281439,638.115921 C507.724578,638.276158 508.426214,638.648649 508.415442,639.455813 C508.410474,639.820532 508.3572,640.163128 508.188299,640.493169 C508.009712,640.842342 506.298301,643.625563 506.0731,644.003435 C505.771015,644.510454 505.474378,645.020462 505.17532,645.529275 C504.959805,645.895787 504.750343,646.265886 504.525747,646.627616 C504.249693,647.072453 503.128529,648.616229 502.980211,648.780651 C502.478955,649.338491 501.89779,649.22489 501.77066,649.180048 C500.687029,648.800382 501.046625,648.05241 501.082343,647.853309 C501.139854,647.52865 501.738575,646.504448 501.914135,646.221044 C502.20714,645.746312 502.483193,645.260818 502.768933,644.781302 C503.021376,644.358588 503.278058,643.938862 503.532318,643.517343 C503.544425,643.496417 503.550479,643.472501 503.5753,643.409721 C503.310748,643.510766 501.862678,644.695803 501.576938,644.916428 C501.368082,645.076665 498.815192,646.883516 495.303985,648.809948 C495.130241,648.904416 494.483695,649.100527 494.350511,649.141184 C492.9654,649.566291 491.557891,649.063457 491.470716,648.98872 C491.346613,648.882892 491.346613,648.760322 491.471321,648.653896 C492.174168,648.055997 492.873383,647.453314 493.609525,646.893681 C494.114413,646.510427 494.592058,646.090104 495.089075,645.695491 C495.721698,645.192059 496.364007,644.701184 496.998446,644.199546 C497.59414,643.729 498.197099,643.265628 498.774632,642.774154 C499.698443,641.988515 500.637388,641.222606 501.629607,640.521868 C502.040055,640.231887 502.447476,639.934133 502.878507,639.674644 C503.507497,639.296772 504.147384,638.934445 504.799984,638.598426 C505.135365,638.425633 505.497383,638.291703 505.864243,638.190658 C506.34431,638.058523 506.897023,637.977208 507.281439,638.115921 Z M519.573146,638.242317 C519.923056,638.476693 520.453369,638.305694 520.757876,637.861455 C521.062382,637.417216 521.026059,636.867746 520.676149,636.63337 C520.326239,636.399591 519.795926,636.569992 519.49142,637.014232 C519.186913,637.458471 519.223236,638.008538 519.573146,638.242317 Z M523.831393,634.163448 C524.181303,634.274657 525.684462,634.764337 525.247983,637.37895 C525.157781,637.918255 525.049418,639.28027 521.97348,640.583093 C521.302113,640.867095 520.623481,641.134356 519.901262,641.277254 C519.742047,641.308942 519.590702,641.377103 519.38124,641.446459 C519.570724,641.580389 519.708751,641.71372 519.874625,641.78786 C520.168235,641.919996 520.39162,642.138229 520.628324,642.338525 C521.007292,642.659597 521.311799,643.049427 521.618727,643.436268 C522.177493,644.139996 522.661797,644.892751 523.014734,645.714265 C523.229644,646.21351 523.456057,646.728302 523.428209,647.292121 C523.401572,647.815283 523.354958,648.340836 523.015945,648.782086 C522.886394,648.951291 522.748367,649.123486 522.536484,649.191049 C522.218659,649.292094 521.944421,649.18507 521.725879,648.953683 C521.36144,648.568636 521.086597,648.123799 520.875925,647.640696 C520.659804,647.145038 520.453975,646.645194 520.227562,646.153721 C519.967854,645.589901 518.56095,644.166303 518.250995,643.934916 C518.080278,643.807564 517.516668,643.489481 517.413754,643.46138 C517.290861,643.427898 517.170996,643.432083 517.085637,643.561229 C516.945794,643.772885 516.322858,644.825188 516.159405,645.144467 C516.155773,645.152239 515.070931,646.995563 514.880236,647.252062 C514.753712,647.422463 514.645348,647.609605 514.500663,647.762668 C514.280304,647.994653 514.02665,648.195547 513.79721,648.419161 C513.063489,649.134249 511.920531,648.626632 512.412705,647.151017 C512.571315,646.674491 512.73053,646.206336 512.93757,645.750139 C513.417637,644.691259 513.885596,643.6264 514.351739,642.561541 C514.518824,642.178886 514.660483,641.786664 514.82333,641.402813 C514.979518,641.033311 515.138128,640.665005 515.313083,640.304472 C515.620616,639.669503 515.936625,639.039317 516.256871,638.410924 C516.59649,637.745463 516.937925,637.078805 517.395592,636.483895 C517.684964,636.107816 517.942251,635.693472 518.362385,635.438169 C518.622093,635.279726 518.898752,635.146992 519.176622,635.020835 C519.477496,634.883916 519.784424,634.756564 520.096195,634.64655 C522.248928,633.884827 523.609218,634.092896 523.831393,634.163448 Z M513.803688,636.94081 C513.365392,636.647839 513.319989,635.959657 513.701379,635.403013 C514.082768,634.846966 514.747476,634.633516 515.185166,634.925889 C515.622856,635.219458 515.668865,635.90764 515.287476,636.464284 C514.906086,637.02033 514.241983,637.23378 513.803688,636.94081 Z" id="icon_nikeair"></path>
        </g>
    </g>
</svg>