<?xml version="1.0" encoding="UTF-8"?>
<svg width="59px" height="42px" viewBox="0 0 59 42" version="1.1" xmlns="http://www.w3.org/2000/svg" xmlns:xlink="http://www.w3.org/1999/xlink">
    <!-- Generator: Sketch 56.3 (81716) - https://sketch.com -->
    <title>icon_air270</title>
    <desc>Created with Sketch.</desc>
    <g id="Production" stroke="none" stroke-width="1" fill="none" fill-rule="evenodd">
        <g id="Artboard" transform="translate(-334.000000, -610.000000)" fill="#231F20">
            <path d="M362.434126,624.639479 C362.397598,624.643082 362.361019,624.645469 362.323855,624.646108 C361.702419,624.656824 361.123271,624.833942 360.630659,625.132928 C359.676927,625.714332 359.048557,626.75495 359.068486,627.928757 L359.179518,634.411791 C359.18628,634.809127 358.992812,635.16567 358.690028,635.389248 C358.489625,635.538886 358.240823,635.629563 357.970385,635.634052 C357.717643,635.63851 357.481141,635.567103 357.283534,635.441245 C356.950457,635.231612 356.726987,634.868938 356.719931,634.453834 L356.608898,627.9708 C356.581744,626.39742 357.223245,624.961863 358.277331,623.921956 C359.229829,622.979352 360.520217,622.360932 361.958774,622.258313 C362.122047,622.242385 362.547715,622.205102 363.029124,622.196891 C364.081125,622.178673 364.504174,622.229825 364.504174,622.229825 C366.529468,622.402202 368.138741,624.046084 368.173175,626.070455 C368.185122,626.783085 367.996788,627.488006 367.628552,628.108841 C367.620119,628.122856 367.611687,628.13687 367.603254,628.150184 L364.355193,633.153304 L369.093061,633.072721 C369.771907,633.060809 370.33199,633.588449 370.343234,634.251327 C370.354478,634.913505 369.813369,635.460064 369.13382,635.471276 L362.117671,635.591098 L362.115563,635.591098 C362.112752,635.591098 362.109941,635.590398 362.10713,635.590398 C362.057938,635.591098 362.009449,635.587595 361.962366,635.58339 C361.946906,635.581288 361.932148,635.579186 361.916688,635.577084 C361.873821,635.570777 361.831656,635.56307 361.790897,635.552559 C361.781059,635.550457 361.771923,635.548354 361.761382,635.545552 C361.710785,635.531537 361.660891,635.514019 361.613104,635.494399 C361.602563,635.490195 361.592725,635.484589 361.582184,635.480385 C361.537209,635.460064 361.492233,635.43694 361.450069,635.411014 C361.445852,635.408912 361.442339,635.408211 361.438122,635.405408 C361.436717,635.404707 361.435311,635.403306 361.433906,635.401905 C361.410013,635.38719 361.387525,635.371073 361.365037,635.354957 C361.354496,635.347249 361.343253,635.340242 361.332711,635.331833 C361.317954,635.320621 361.304602,635.308009 361.290547,635.296096 C361.192866,635.214112 361.111349,635.119516 361.046697,635.01581 C361.039669,635.003897 361.030534,634.991985 361.023506,634.979372 C361.016479,634.966759 361.010857,634.954146 361.003829,634.940833 C360.991883,634.919111 360.979936,634.896688 360.969395,634.874265 L360.969395,634.873564 C360.930042,634.785274 360.901932,634.691378 360.885067,634.592576 C360.881553,634.575058 360.878039,634.55684 360.875931,634.538621 C360.873823,634.526008 360.873823,634.513395 360.872417,634.500082 C360.869606,634.472754 360.867498,634.445426 360.866795,634.418098 C360.866795,634.415996 360.866093,634.414594 360.866093,634.412492 C360.866093,634.401981 360.867498,634.392171 360.867498,634.381661 C360.867498,634.353632 360.868201,634.326304 360.870309,634.298275 C360.871714,634.28356 360.873823,634.268845 360.875931,634.25413 C360.878742,634.229605 360.881553,634.205781 360.885769,634.181956 C360.889283,634.164438 360.893499,634.14692 360.897013,634.129402 C360.901932,634.109082 360.906851,634.08806 360.912473,634.067739 C360.918095,634.048119 360.925123,634.028499 360.93215,634.008879 C360.938475,633.992062 360.943394,633.974544 360.950421,633.957026 C360.959557,633.934603 360.969395,633.913582 360.979936,633.891159 C360.986261,633.877845 360.992586,633.863831 360.999613,633.849816 C361.012262,633.825291 361.026317,633.802168 361.041075,633.778343 C361.046697,633.769234 361.051616,633.759424 361.057238,633.750314 L361.064968,633.739103 C361.064968,633.739103 361.065671,633.737702 361.065671,633.737702 L365.509793,626.890995 C365.64753,626.65135 365.717804,626.382975 365.712885,626.112498 C365.69883,625.271638 364.98555,624.59965 364.122586,624.614365 L363.981336,624.617168 C363.981336,624.617168 363.535799,624.616468 363.08956,624.624175 C362.786105,624.629484 362.569766,624.635194 362.434126,624.639479 Z M359.126391,615.811747 C357.733562,616.438188 355.53961,617.176744 354.569127,615.761996 C354.028018,614.976493 354.31333,613.718005 355.035746,612.554814 C355.495338,611.811354 356.094072,611.124651 356.693508,610.437247 C356.366734,610.992916 355.453173,612.847714 356.757457,613.718705 C357.264835,614.051546 358.139043,614.060655 359.215639,613.750238 L372.054685,610 L359.126391,615.811747 Z M377.834786,622.020731 C378.244483,622.013724 378.630989,622.206421 378.865001,622.533656 C379.099014,622.862292 379.150313,623.282022 379.001333,623.654803 L374.614834,634.632938 C374.427906,635.100316 373.973233,635.389712 373.488343,635.39742 C373.333741,635.400223 373.175624,635.374296 373.021725,635.316137 C372.388557,635.075791 372.075838,634.38068 372.322499,633.763348 L376.043503,624.450117 L370.40121,624.546116 C369.722364,624.558028 369.162281,624.030388 369.151037,623.36821 C369.13909,622.706033 369.680902,622.159473 370.360451,622.148262 L377.834786,622.020731 Z M386.064495,621.881429 C389.825555,621.817663 392.936582,624.748763 392.999828,628.415615 C393.011072,629.078494 392.46926,629.624352 391.789711,629.636264 C391.110865,629.648177 390.550782,629.120537 390.539538,628.457658 C390.499482,626.113059 388.510027,624.239342 386.105956,624.279983 C383.701183,624.320625 381.777785,626.261611 381.817841,628.60621 C381.857897,630.95081 383.84665,632.825228 386.251423,632.783886 C386.930269,632.771973 387.490352,633.299613 387.501596,633.962492 C387.513543,634.624669 386.971731,635.170528 386.292182,635.18244 C382.531824,635.246205 379.420798,632.315106 379.358254,628.648253 C379.295007,624.9807 382.303434,621.945194 386.064495,621.881429 Z M353.235117,622.403883 C353.913261,622.392672 354.474047,622.921013 354.485291,623.582489 L354.672219,634.48845 C354.683463,635.149927 354.140948,635.697187 353.462805,635.708398 C352.784662,635.72031 352.223876,635.19197 352.211929,634.530493 L352.025703,623.624532 C352.014459,622.963056 352.556974,622.415795 353.235117,622.403883 Z M349.746439,623.789972 L349.929151,634.446477 C349.941098,635.177325 349.341661,635.782744 348.591135,635.795357 C347.842015,635.80797 347.221497,635.223572 347.208847,634.492024 L347.074624,626.654503 L336.24471,635.70076 C336.004373,635.901166 335.698681,636.014682 335.383854,636.020287 C334.976968,636.027295 334.591164,635.858422 334.326934,635.557113 C334.090111,635.288038 333.977673,634.946088 334.003674,634.592927 C334.032487,634.239065 334.199739,633.917436 334.475915,633.6869 L347.50189,622.806866 C347.900343,622.473324 348.467453,622.394143 348.945316,622.603658 C349.423179,622.813172 349.737303,623.279149 349.746439,623.789972 Z M358.425339,648.698922 L359.356468,650.242602 C358.515289,651.203285 357.28409,651.818514 355.904613,651.839536 C353.322749,651.880177 351.196963,649.824974 351.156907,647.25054 C351.116851,644.676105 353.177985,642.556436 355.759849,642.516495 C357.269333,642.493372 358.623511,643.18568 359.494908,644.2802 L356.698708,647.165052 L354.660765,647.196585 L357.099972,644.684514 C356.707141,644.484809 356.260199,644.376198 355.788661,644.383205 C354.240526,644.40703 353.005111,645.67743 353.029004,647.22181 C353.052897,648.76549 354.327666,649.997351 355.875801,649.973526 C357.226466,649.949702 358.036724,649.063995 358.425339,648.698922 Z M373.057775,644.11413 C371.706408,644.137955 370.908096,645.025062 370.519481,645.390136 L369.586243,643.848558 C370.427422,642.886474 371.659324,642.270544 373.039504,642.249522 L373.049342,642.248821 C374.46747,642.227099 375.747158,642.836723 376.61996,643.817727 L375.402113,645.073412 C374.945333,644.670499 374.192699,644.098714 373.089398,644.11413 L373.080965,644.11413 L373.071127,644.11413 L373.065505,644.11413 L373.057775,644.11413 Z M375.714832,648.431949 L376.645962,649.974928 C375.804783,650.936311 374.573584,651.551541 373.194107,651.572563 C371.465368,651.59919 369.941829,650.685455 369.111894,649.306444 L369.109083,649.307845 L366.885616,645.596147 C366.385969,644.774206 365.474516,644.231851 364.441489,644.247266 C362.891949,644.271091 361.655831,645.542892 361.679724,647.087973 C361.70432,648.630952 362.976981,649.862813 364.52371,649.841791 L364.53144,649.841791 L364.539873,649.841091 C365.89124,649.817967 366.688849,648.930859 367.078167,648.565085 L368.009296,650.108765 C367.168118,651.069448 365.936918,651.684677 364.557441,651.7064 C361.975577,651.74634 359.849791,649.691838 359.809735,647.116703 C359.769679,644.542268 361.830813,642.422599 364.412677,642.382658 C366.141416,642.356031 367.66636,643.268365 368.496997,644.648077 C368.496997,644.648077 370.772467,648.440357 370.799874,648.480298 C371.312171,649.232168 372.180757,649.721268 373.160375,649.707954 L373.168105,649.707954 L373.176538,649.707954 C374.527906,649.68413 375.325515,648.797022 375.714832,648.431949 Z M350.078905,642.604085 L352.433081,642.567648 L350.596824,644.461686 L350.10842,644.468693 C348.55888,644.493218 347.322059,645.76502 347.345952,647.3094 L347.418334,651.971271 L345.548345,652 L345.475963,647.33883 C345.435907,644.763695 347.497041,642.644026 350.078905,642.604085 Z M382.109056,649.569913 L382.138572,651.434521 C379.556005,651.474462 377.430219,649.41996 377.390162,646.844825 L377.319889,642.320995 L379.173715,641.212461 L379.201122,643.018909 L381.712712,642.976166 L380.160361,644.576603 L379.22642,644.59272 L379.260854,646.816095 C379.284747,648.361176 380.560219,649.593738 382.109056,649.569913 Z" id="icon_air270"></path>
        </g>
    </g>
</svg>