<?xml version="1.0" encoding="UTF-8"?>
<svg width="51px" height="11px" viewBox="0 0 51 11" version="1.1" xmlns="http://www.w3.org/2000/svg" xmlns:xlink="http://www.w3.org/1999/xlink">
    <!-- Generator: Sketch 56.3 (81716) - https://sketch.com -->
    <title>logo_air200</title>
    <desc>Created with Sketch.</desc>
    <defs>
        <polygon id="path-1" points="0.159352524 0.0746086957 7.45686202 0.0746086957 7.45686202 10.7519978 0.159352524 10.7519978"></polygon>
    </defs>
    <g id="Production" stroke="none" stroke-width="1" fill="none" fill-rule="evenodd">
        <g id="Artboard" transform="translate(-600.000000, -300.000000)">
            <g id="logo_air200" transform="translate(600.000002, 300.000000)">
                <path d="M16.4179788,9.96315435 L16.4179788,1.21002391 C16.4179788,0.678676087 15.9761423,0.248002174 15.4315702,0.248002174 C14.8865077,0.248002174 14.4446712,0.678676087 14.4446712,1.21002391 L14.4446712,9.96315435 C14.4446712,10.4947413 14.8865077,10.9251761 15.4315702,10.9251761 C15.9761423,10.9251761 16.4179788,10.4947413 16.4179788,9.96315435" id="Fill-1" fill="#000000"></path>
                <path d="M11.6403332,10.9252717 C12.1851505,10.9252717 12.6264966,10.4945978 12.6264966,9.96325 L12.6264966,1.21011957 C12.6264966,0.835880435 12.4041072,0.495597826 12.0561793,0.337771739 C11.7080063,0.179706522 11.2980447,0.233032609 11.0043043,0.474076087 L0.35094375,9.22720652 C-0.0656379808,9.5696413 -0.118844712,10.1767935 0.232270673,10.5830761 C0.42744375,10.8092935 0.705982212,10.9252717 0.987217788,10.9252717 C1.21156875,10.9252717 1.43739087,10.8509022 1.62226587,10.6992935 L10.6536793,3.27859783 L10.6536793,9.96325 C10.6536793,10.4945978 11.0950255,10.9252717 11.6403332,10.9252717" id="Fill-3" fill="#000000"></path>
                <path d="M23.0151966,0.239130435 L22.8644034,0.239130435 C20.312687,0.239130435 18.2359082,2.26408696 18.2359082,4.75319565 L18.2359082,9.94184783 C18.2359082,10.4734348 18.6777447,10.9043478 19.222562,10.9043478 C19.7676245,10.9043478 20.2089707,10.4734348 20.2089707,9.94184783 L20.2089707,4.75319565 L20.2089707,4.74052174 C20.2089707,3.31291304 21.4001149,2.15121739 22.8644034,2.15121739 C23.4092207,2.15121739 23.8510572,1.72006522 23.8510572,1.18895652 C23.8510572,0.707826087 23.4884178,0.310391304 23.0151966,0.239130435" id="Fill-5" fill="#000000"></path>
                <g id="Group-9" transform="translate(21.086538, 0.164522)">
                    <mask id="mask-2" fill="white">
                        <use xlink:href="#path-1"></use>
                    </mask>
                    <g id="Clip-8"></g>
                    <path d="M2.90511202,1.99886739 C3.59655433,1.99886739 4.15927067,2.54767174 4.15927067,3.22249783 C4.15927067,3.43915 4.09968894,3.65365 3.98591971,3.84351957 L0.322501442,9.26006304 C0.122424519,9.55586739 0.105261058,9.93441087 0.277140865,10.2459978 C0.449265865,10.5575848 0.782972596,10.7519978 1.1461024,10.7519978 L6.47069856,10.7519978 C7.01551587,10.7519978 7.45686202,10.321563 7.45686202,9.78997609 C7.45686202,9.25838913 7.01551587,8.82795435 6.47069856,8.82795435 L2.97866971,8.82795435 L5.64611683,4.88397609 C5.65371779,4.87297609 5.66082837,4.86173696 5.66818413,4.8502587 C5.9719774,4.35693261 6.13282356,3.7942587 6.13282356,3.22249783 C6.13282356,1.48665 4.68496298,0.0745847826 2.90511202,0.0745847826 L2.76976587,0.0745847826 C3.01642933,0.319693478 3.16918413,0.654715217 3.16918413,1.02441087 C3.16918413,1.4065413 3.00564087,1.75232391 2.74377548,1.99886739 L2.90511202,1.99886739 Z" id="Fill-7" fill="#000000" mask="url(#mask-2)"></path>
                </g>
                <path d="M33.6207202,2.16176304 C35.5523452,2.17635 37.1115231,3.72089348 37.0965663,5.60452391 C37.0811192,7.48815435 35.4976673,9.00878478 33.5662875,8.99443696 C31.6346625,8.98008913 30.075975,7.43530652 30.0906865,5.55167609 C30.1053981,3.66780652 31.6890952,2.14693696 33.6207202,2.16176304 M33.5508404,10.9134587 C36.5671962,10.935937 39.0406962,8.56185 39.0644798,5.61958913 C39.0880183,2.67732826 36.6522779,0.264980435 33.6359221,0.242741304 C30.6193212,0.219545652 28.1463115,2.59458913 28.1227731,5.53661087 C28.0994798,8.47863261 30.5347298,10.890263 33.5508404,10.9134587" id="Fill-10" fill="#000000"></path>
                <path d="M45.4488462,8.99448478 C43.516976,8.97989783 41.9580433,7.43559348 41.9727548,5.55172391 C41.9879567,3.66785435 43.5714087,2.14698478 45.5030337,2.16181087 C47.4349038,2.1761587 48.9935913,3.7209413 48.9786346,5.60505 C48.9631875,7.4884413 47.3799808,9.00883261 45.4488462,8.99448478 M45.5182356,0.24255 C42.5013894,0.219593478 40.028625,2.59439783 40.0050865,5.5366587 C39.9817933,8.47868043 42.4167981,10.8907891 45.4331538,10.9132674 C48.4492644,10.9359848 50.9232548,8.5616587 50.9467933,5.61963696 C50.9705769,2.67737609 48.5343462,0.265506522 45.5182356,0.24255" id="Fill-12" fill="#000000"></path>
            </g>
        </g>
    </g>
</svg>