<?xml version="1.0" encoding="UTF-8"?>
<svg width="49px" height="11px" viewBox="0 0 49 11" version="1.1" xmlns="http://www.w3.org/2000/svg" xmlns:xlink="http://www.w3.org/1999/xlink">
    <!-- Generator: Sketch 56.3 (81716) - https://sketch.com -->
    <title>logo_air270</title>
    <desc>Created with Sketch.</desc>
    <g id="Production" stroke="none" stroke-width="1" fill="none" fill-rule="evenodd">
        <g id="Artboard" transform="translate(-395.000000, -300.000000)" fill="#000000">
            <path d="M431.248467,300.003373 L425.008623,300.003373 C424.441295,300.003373 423.981665,300.443862 423.981665,300.986773 C423.981665,301.529929 424.441295,301.970418 425.008623,301.970418 L429.717727,301.970418 L426.466884,309.559684 C426.251998,310.062018 426.502868,310.636707 427.027576,310.842773 C427.155181,310.892884 427.286868,310.916596 427.416769,310.916596 C427.821019,310.916596 428.204342,310.686084 428.367165,310.305729 L432.198608,301.36004 C432.328253,301.056684 432.291759,300.711284 432.101118,300.438729 C431.910477,300.166907 431.590701,300.003373 431.248467,300.003373 M438.119186,300.003373 C434.979358,300.003373 432.424977,302.450018 432.424977,305.457418 C432.424977,308.464818 434.979358,310.911707 438.119186,310.911707 C438.686259,310.911707 439.146144,310.471218 439.146144,309.928062 C439.146144,309.384907 438.686259,308.944662 438.119186,308.944662 C436.111717,308.944662 434.478639,307.380218 434.478639,305.457418 C434.478639,303.534618 436.111717,301.970418 438.119186,301.970418 C440.126655,301.970418 441.759988,303.534618 441.759988,305.457418 C441.759988,306.000818 442.219618,306.441062 442.786691,306.441062 C443.353764,306.441062 443.813649,306.000818 443.813649,305.457418 C443.813649,302.450018 441.259014,300.003373 438.119186,300.003373 M423.682816,308.94784 L420.048139,308.94784 L422.82455,304.916462 C422.832462,304.904973 422.840118,304.893484 422.847519,304.881751 C423.163722,304.377707 423.331139,303.802284 423.331139,303.217818 C423.331139,301.44364 421.824134,299.999951 419.971576,299.999951 L419.830957,299.999951 C420.087441,300.250507 420.246436,300.593218 420.246436,300.970884 C420.246436,301.361751 420.076212,301.714973 419.803649,301.96724 L419.971576,301.96724 C420.691519,301.96724 421.277222,302.52824 421.277222,303.217818 C421.277222,303.439529 421.214951,303.658796 421.09679,303.852884 L417.283467,309.389551 C417.075472,309.691929 417.057352,310.078884 417.236509,310.397396 C417.415665,310.716151 417.762748,310.914884 418.140712,310.914884 L423.682816,310.914884 C424.249889,310.914884 424.709519,310.47464 424.709519,309.931484 C424.709519,309.388084 424.249889,308.94784 423.682816,308.94784 M419.825342,300.970884 C419.825342,300.479062 419.447889,300.072796 418.955337,299.999951 L418.798384,299.999951 C416.142175,299.999951 413.980816,302.069907 413.980816,304.614329 L413.980816,309.918773 C413.980816,310.461684 414.440446,310.902173 415.007774,310.902173 C415.575102,310.902173 416.034477,310.461684 416.034477,309.918773 L416.034477,304.614329 L416.034477,304.601862 C416.034477,303.14204 417.27428,301.954529 418.798384,301.954529 C419.365457,301.954529 419.825342,301.51404 419.825342,300.970884 M407.5488,300.100662 C407.186405,299.939329 406.759441,299.99384 406.453957,300.240484 L395.365155,309.187884 C394.931556,309.537929 394.876175,310.158573 395.241634,310.573884 C395.44478,310.804884 395.734951,310.923929 396.02742,310.923929 C396.260936,310.923929 396.495983,310.847662 396.68841,310.692684 L406.088753,303.107084 L406.088753,309.94004 C406.088753,310.48344 406.548384,310.923929 407.115712,310.923929 C407.682785,310.923929 408.142415,310.48344 408.142415,309.94004 L408.142415,300.99264 C408.142415,300.60984 407.910941,300.26224 407.5488,300.100662 M412.088701,300.99264 L412.088701,309.94004 C412.088701,310.48344 411.628816,310.923929 411.061743,310.923929 C410.49467,310.923929 410.034785,310.48344 410.034785,309.94004 L410.034785,300.99264 C410.034785,300.44924 410.49467,300.008996 411.061743,300.008996 C411.628816,300.008996 412.088701,300.44924 412.088701,300.99264" id="logo_air270"></path>
        </g>
    </g>
</svg>