<?xml version="1.0" encoding="UTF-8"?>
<svg width="78px" height="14px" viewBox="0 0 78 14" version="1.1" xmlns="http://www.w3.org/2000/svg" xmlns:xlink="http://www.w3.org/1999/xlink">
    <!-- Generator: Sketch 56.3 (81716) - https://sketch.com -->
    <title>logo_nikereact</title>
    <desc>Created with Sketch.</desc>
    <defs>
        <polygon id="path-1" points="0.000187628866 0 77.8721443 0 77.8721443 13.9673442 0.000187628866 13.9673442"></polygon>
    </defs>
    <g id="Production" stroke="none" stroke-width="1" fill="none" fill-rule="evenodd">
        <g id="Artboard" transform="translate(-483.000000, -298.000000)">
            <g id="logo_nikereact" transform="translate(483.000002, 298.000000)">
                <mask id="mask-2" fill="white">
                    <use xlink:href="#path-1"></use>
                </mask>
                <g id="Clip-2"></g>
                <path d="M18.7697753,8.52888077 C20.1836928,7.52815 21.1089711,5.87722692 21.1100433,4.00822692 L21.1108474,2.92968846 L19.6384969,2.92861154 L19.6379608,4.00715 C19.6360845,6.24607308 17.8281464,8.05961154 15.5991155,8.05799615 L15.4227443,8.05772692 L15.4283732,-8.07692308e-05 L13.9603113,0.854996154 L13.9509299,13.9293808 L15.4184557,13.9301885 L15.4216722,9.56272692 L16.6077546,9.56353462 C18.8365175,9.56515 20.6420433,11.3813808 20.6404351,13.6200346 L20.6404351,13.9627654 L22.1127856,13.9638423 L22.113055,13.6211115 C22.1146619,11.3364192 20.7369299,9.37426538 18.7697753,8.52888077 L18.7697753,8.52888077 Z M30.9144557,10.7799192 C30.1813629,11.8118808 28.9842907,12.4884577 27.6263938,12.4873808 C25.3957546,12.4857654 23.5888887,10.6679192 23.5902289,8.42738077 L23.5899608,8.42738077 C23.5918371,6.18684231 25.4013835,4.37195769 27.6320227,4.37330385 C28.4157753,4.37384231 29.1459196,4.60026538 29.7650948,4.98876538 L26.3296103,8.43411154 L28.1745381,8.43545769 L31.7917546,4.80757308 C31.5062907,4.47588077 31.1849093,4.17649615 30.8292186,3.92153462 C29.9280639,3.27484231 28.8250742,2.89415 27.6330948,2.893072 C24.5886825,2.89118846 22.1189505,5.36838077 22.1165371,8.42630385 C22.1146619,11.4844962 24.5809093,13.9651885 27.6253216,13.9673442 C29.2440227,13.9686885 30.6943938,13.2633038 31.7038371,12.1476115 L30.9144557,10.7799192 Z M4.6260433,2.85187949 C2.07563093,2.84999615 0.00635257732,4.92522692 0.00447628866,7.48722692 L0.000187628866,13.9258808 L1.46744536,13.9269577 L1.4722701,7.48830385 C1.47361031,5.74315 2.88779588,4.32484231 4.62497113,4.32618846 C6.36241443,4.32753462 7.77445567,5.74799615 7.77338351,7.49288077 L7.7688268,13.9315346 L9.23662062,13.9326115 L9.24091056,7.49395769 C9.24278557,4.93195769 7.17672371,2.85376538 4.6260433,2.85187949 L4.6260433,2.85187949 Z M10.8598784,13.9269577 L12.3274041,13.9280346 L12.3354454,2.86615 L10.8673835,3.72095769 L10.8598784,13.9269577 Z M50.0016722,10.2557269 C49.5368887,10.68165 48.5665794,11.7165731 46.9752186,11.7184577 C45.151734,11.7171115 43.6745588,10.2312269 43.675899,8.39991923 C43.6772392,6.56834231 45.1565588,5.08461154 46.9797753,5.08595769 C47.5354247,5.08649615 48.0589093,5.22488077 48.5180639,5.46880385 L45.5977546,8.40126538 L47.9980639,8.40315 L51.346167,5.03480385 C50.3402082,3.72068846 48.7598371,2.87261154 46.9813835,2.87126431 C43.9404557,2.86938077 41.4734041,5.34361154 41.4712584,8.39830385 C41.4691155,11.4527269 43.9326825,13.9307269 46.9736103,13.9328827 C48.5987443,13.9342269 50.0598371,13.2280346 51.0687443,12.1042654 L50.0016722,10.2557269 Z M67.3184763,5.09861154 C67.3219608,5.09861154 67.3249093,5.09834231 67.3281258,5.09834231 C67.3313423,5.09834231 67.3342907,5.09861154 67.3372392,5.09861154 C67.3401876,5.09861154 67.3434041,5.09834231 67.3463526,5.09834231 C67.349301,5.09834231 67.3527856,5.09861154 67.3560021,5.09861154 C68.6551979,5.10184231 69.5308887,5.79484231 70.0608062,6.28107308 L71.5192186,4.81484231 C70.5100433,3.63507308 69.0143732,2.88741923 67.3447443,2.88607185 L67.3332186,2.88607185 C65.7070124,2.88499615 64.2451155,3.59199615 63.2364763,4.71711154 L64.3054247,6.56349615 C64.7702082,6.13757308 65.7271155,5.10049615 67.3184763,5.09861154 L67.3184763,5.09861154 Z M70.3642289,10.2705346 C69.8997134,10.6964577 68.9428062,11.7332654 67.3511773,11.7354192 L67.3415278,11.7354192 L67.3326825,11.7354192 C66.179033,11.7324577 65.165301,11.1355731 64.5766825,10.2333808 C64.5453216,10.1857269 61.9383526,5.64380385 61.9383526,5.64380385 C60.9868062,3.99207308 59.2091567,2.88041923 57.1725794,2.87880244 C54.1316515,2.87665 51.6646,5.35115 51.6621862,8.40557308 C51.6600433,11.4602654 54.1233423,13.9382654 57.1645381,13.9404192 C58.7896722,13.9414962 60.2507649,13.2353038 61.2596722,12.1118038 L60.192332,10.2629962 C59.7275485,10.6889192 58.7706412,11.7259962 57.1792804,11.72815 L57.1696309,11.72815 L57.1605175,11.72815 C55.3386412,11.7235731 53.8636103,10.2382269 53.8649505,8.40745769 C53.8662907,6.57453462 55.3464144,5.08999615 57.1712392,5.09107308 C58.3878784,5.09188077 59.4503938,5.75338077 60.0229299,6.73741923 L62.5695897,11.1826885 L62.5728062,11.1816115 C63.5240845,12.8333423 65.3001258,13.9460731 67.3364351,13.9476897 C68.9618371,13.9487654 70.4226619,13.2428423 71.4315691,12.1190731 L70.3642289,10.2705346 Z M40.2908062,2.86668706 C37.2496103,2.86453462 34.7825588,5.33876538 34.7804144,8.39345769 L34.7766619,13.9245346 L36.9791567,13.92615 L36.9831773,8.39507308 C36.9845175,6.56241923 38.4649093,5.07788077 40.2891979,5.07922692 L40.8649505,5.07922692 L43.0631567,2.86884231 L40.2908062,2.86668706 Z M77.872332,11.7429577 L77.8707237,13.9554962 C74.8295278,13.9533423 72.3659608,11.4753423 72.3681038,8.42065 L72.3721258,3.05353462 L74.5754247,1.77415 L74.5738165,3.91695769 L77.5311155,3.91507308 L75.6727856,5.78353462 L74.5724763,5.78407308 L74.570868,8.42226538 C74.5695278,10.2549192 76.0475072,11.7418808 77.872332,11.7429577 L77.872332,11.7429577 Z" id="Fill-1" fill="#000000" mask="url(#mask-2)"></path>
            </g>
        </g>
    </g>
</svg>