<?xml version="1.0" encoding="UTF-8"?>
<svg width="152px" height="69px" viewBox="0 0 152 69" version="1.1" xmlns="http://www.w3.org/2000/svg" xmlns:xlink="http://www.w3.org/1999/xlink">
    <!-- Generator: Sketch 56.3 (81716) - https://sketch.com -->
    <title>psyched_by_you</title>
    <desc>Created with Sketch.</desc>
    <g id="Production" stroke="none" stroke-width="1" fill="none" fill-rule="evenodd" fill-opacity="0">
        <g id="Artboard" transform="translate(-57.000000, -335.000000)" fill="#D8D8D8" fill-rule="nonzero" stroke="#000000" stroke-width="0.75">
            <path d="M66.2774556,367.160949 L58,367.160949 L58,336.568038 L66.0328017,336.568038 C68.2346975,336.568038 70.1103583,336.825005 71.6598405,337.338947 C73.2093227,337.852889 74.4869468,338.562929 75.492751,339.46909 C76.4985552,340.375251 77.2325095,341.470742 77.6946357,342.755596 C78.156762,344.040451 78.3878217,345.45377 78.3878217,346.995595 C78.3878217,348.510371 78.1839455,349.889879 77.776187,351.134159 C77.3684286,352.378439 76.7228207,353.446881 75.839344,354.339517 C74.9558673,355.232153 73.8345483,355.921906 72.4753534,356.408799 C71.1161585,356.895691 69.4851491,357.139133 67.5822762,357.139133 L66.2774556,357.139133 L66.2774556,367.160949 Z M66.2774556,350.36325 L67.0521928,350.36325 C67.9764454,350.36325 68.7307872,350.058947 69.315241,349.450331 C69.8996948,348.841716 70.1919174,347.99643 70.1919174,346.914447 C70.1919174,345.967712 69.9268783,345.13595 69.3967923,344.419137 C68.8667063,343.702323 68.085181,343.343922 67.0521928,343.343922 L66.2774556,343.343922 L66.2774556,350.36325 Z M80.6078289,356.81454 C82.2660467,359.032605 84.0329736,360.141621 85.9086626,360.141621 C86.6154439,360.141621 87.1930931,359.952276 87.6416274,359.573582 C88.0901617,359.194888 88.3144255,358.721528 88.3144255,358.153487 C88.3144255,357.342 87.8251227,356.54405 86.8465024,355.759612 L85.5009061,354.704684 C83.7067688,353.325156 82.4223489,351.965936 81.6476078,350.626982 C80.8728667,349.288028 80.485502,347.766513 80.485502,346.06239 C80.485502,344.655812 80.7233575,343.343928 81.1990758,342.126697 C81.674794,340.909466 82.3339936,339.847787 83.1766945,338.941626 C84.0193953,338.035465 85.0115927,337.318663 86.1533164,336.791196 C87.2950401,336.263729 88.5182972,336 89.8231243,336 C91.780365,336 93.7647598,336.527459 95.7763682,337.582392 L95.7763682,346.914447 C95.0967708,345.886563 94.3288372,345.068326 93.4725444,344.459711 C92.6162516,343.851095 91.7667675,343.546792 90.9240667,343.546792 C90.298837,343.546792 89.7755548,343.729374 89.3542044,344.094543 C88.932854,344.459713 88.7221819,344.899261 88.7221819,345.413203 C88.7221819,346.22469 89.2794435,347.036165 90.3939833,347.847652 L91.7395796,348.821432 C93.479349,350.092762 94.7297896,351.384359 95.4909387,352.696264 C96.2520879,354.008168 96.6326568,355.543208 96.6326568,357.30143 C96.6326568,358.816206 96.3880053,360.202475 95.8986952,361.46028 C95.409385,362.718085 94.7365936,363.813577 93.8803008,364.746787 C93.024008,365.679997 91.9910354,366.403562 90.7813519,366.917504 C89.5716685,367.431446 88.2600651,367.688413 86.8465024,367.688413 C84.8892617,367.688413 82.8097247,367.255626 80.6078289,366.39004 L80.6078289,356.81454 Z M113.939652,367.160949 L105.621421,367.160949 L105.621421,354.217794 L97.9963755,336.568038 L106.640812,336.568038 L108.149511,341.112343 C108.448534,341.977929 108.713573,342.823216 108.944636,343.648228 C109.175699,344.47324 109.386371,345.264428 109.576658,346.021816 C109.766945,345.264428 109.970822,344.47324 110.188293,343.648228 C110.405764,342.823216 110.664007,341.977929 110.96303,341.112343 L112.471729,336.568038 L121.07539,336.568038 L113.939652,354.217794 L113.939652,367.160949 Z M138.586263,366.592911 C136.737758,367.323249 135.079565,367.688413 133.611635,367.688413 C131.76313,367.688413 130.070957,367.330011 128.535067,366.613198 C126.999177,365.896384 125.673982,364.854991 124.559442,363.488988 C123.444902,362.122985 122.57503,360.466223 121.949801,358.518654 C121.324571,356.571085 121.011961,354.353054 121.011961,351.864493 C121.011961,349.511181 121.331367,347.360772 121.970188,345.413203 C122.60901,343.465634 123.519657,341.795348 124.702157,340.402296 C125.884656,339.009243 127.311789,337.927276 128.983599,337.156363 C130.655409,336.385451 132.524274,336 134.59025,336 C135.297031,336 135.983415,336.067623 136.64942,336.202871 C137.315426,336.338119 138.001809,336.527463 138.70859,336.770909 L138.70859,345.494352 C137.430947,344.277121 136.166915,343.668515 134.916455,343.668515 C133.149502,343.668515 131.803919,344.398842 130.879667,345.859519 C129.955414,347.320196 129.493295,349.321834 129.493295,351.864493 C129.493295,354.326004 129.941822,356.253257 130.838891,357.64631 C131.73596,359.039363 133.040767,359.735879 134.753353,359.735879 C136.194099,359.735879 137.634824,359.073174 139.075571,357.747746 L138.586263,366.592911 Z M163.518304,367.160949 L155.240848,367.160949 L155.240848,354.866981 L151.244835,354.866981 L151.244835,367.160949 L142.967379,367.160949 L142.967379,336.568038 L151.244835,336.568038 L151.244835,347.401337 L155.240848,347.401337 L155.240848,336.568038 L163.518304,336.568038 L163.518304,367.160949 Z M167.817869,367.160949 L167.817869,336.568038 L183.231062,336.568038 L183.231062,343.749663 L176.095324,343.749663 L176.095324,348.21282 L182.4971,348.21282 L182.4971,355.151 L176.095324,355.151 L176.095324,359.817027 L183.231062,359.817027 L183.231062,367.160949 L167.817869,367.160949 Z M186.75589,336.568038 L193.932403,336.568038 C196.297402,336.568038 198.363347,336.953489 200.130301,337.724401 C201.897254,338.495314 203.358367,339.563756 204.513682,340.929759 C205.668998,342.295763 206.53887,343.918713 207.123324,345.798658 C207.707777,347.678603 208,349.714052 208,351.905068 C208,354.204281 207.734961,356.293829 207.204875,358.173774 C206.674789,360.053719 205.852488,361.656382 204.737949,362.981811 C203.623409,364.30724 202.216663,365.335108 200.517669,366.065447 C198.818676,366.795785 196.813893,367.160949 194.503262,367.160949 L186.75589,367.160949 L186.75589,336.568038 Z M195.033345,359.776453 C198.023574,359.614156 199.518666,357.05801 199.518666,352.107938 C199.518666,349.646428 199.131301,347.712412 198.35656,346.305835 C197.581819,344.899257 196.569234,344.195979 195.318775,344.195979 L195.033345,344.195979 L195.033345,359.776453 Z M58,371.879625 L67.6638275,371.879625 C69.4851486,371.879625 71.068587,372.096019 72.4141899,372.528812 C73.7597929,372.961605 74.8675201,373.563449 75.7374049,374.334362 C76.6072896,375.105274 77.2528975,376.024946 77.6742479,377.093404 C78.0955983,378.161862 78.3062704,379.318214 78.3062704,380.562494 C78.3062704,384.376483 76.4034261,386.445744 72.5976803,386.770339 C74.7995761,387.094934 76.3966061,387.804975 77.3888184,388.900482 C78.3810307,389.99599 78.8771294,391.598653 78.8771294,393.708519 C78.8771294,395.006899 78.6528656,396.197062 78.2043313,397.279045 C77.755797,398.361027 77.1237808,399.287461 76.3082639,400.058374 C75.4927469,400.829287 74.5141413,401.424368 73.3724175,401.843637 C72.2306938,402.262905 70.9802533,402.472536 69.6210584,402.472536 L58,402.472536 L58,371.879625 Z M66.2774556,395.818375 C66.440559,395.845425 66.5832723,395.858949 66.7055999,395.858949 L67.0114172,395.858949 C68.0444053,395.858949 68.8667059,395.59522 69.4783436,395.067753 C70.0899813,394.540287 70.3957956,393.816721 70.3957956,392.897036 C70.3957956,391.977351 70.0899813,391.260548 69.4783436,390.746606 C68.8667059,390.232664 68.0172218,389.975697 66.9298659,389.975697 L66.2774556,389.975697 L66.2774556,395.818375 Z M66.2774556,383.767852 L66.8483146,383.767852 C67.8541188,383.767852 68.6424401,383.537934 69.2133019,383.078091 C69.7841638,382.618249 70.0695904,381.969069 70.0695904,381.130532 C70.0695904,379.37231 69.0909848,378.493212 67.1337441,378.493212 L66.807539,378.493212 C66.6716195,378.493212 66.4949268,378.506737 66.2774556,378.533786 L66.2774556,383.767852 Z M95.2462849,402.472536 L86.9280536,402.472536 L86.9280536,389.529381 L79.3030083,371.879625 L87.9474447,371.879625 L89.4561435,376.42393 C89.7551664,377.289517 90.0202054,378.134803 90.2512686,378.959815 C90.4823317,379.784827 90.6930038,380.576015 90.883291,381.333403 C91.0735783,380.576015 91.2774545,379.784827 91.4949257,378.959815 C91.7123969,378.134803 91.97064,377.289517 92.2696629,376.42393 L93.7783617,371.879625 L102.382022,371.879625 L95.2462849,389.529381 L95.2462849,402.472536 Z M130.553461,402.472536 L122.23523,402.472536 L122.23523,389.529381 L114.610185,371.879625 L123.254621,371.879625 L124.76332,376.42393 C125.062343,377.289517 125.327382,378.134803 125.558445,378.959815 C125.789508,379.784827 126.00018,380.576015 126.190468,381.333403 C126.380755,380.576015 126.584631,379.784827 126.802102,378.959815 C127.019573,378.134803 127.277817,377.289517 127.576839,376.42393 L129.085538,371.879625 L137.689199,371.879625 L130.553461,389.529381 L130.553461,402.472536 Z M161.153316,387.176081 C161.153316,389.529393 160.874686,391.679802 160.317416,393.627371 C159.760146,395.57494 158.965029,397.245226 157.932041,398.638279 C156.899052,400.031332 155.662204,401.106536 154.221457,401.863924 C152.78071,402.621312 151.190476,403 149.450707,403 C147.683753,403 146.086723,402.621312 144.659569,401.863924 C143.232414,401.106536 142.002361,400.031332 140.969373,398.638279 C139.936385,397.245226 139.141268,395.57494 138.583998,393.627371 C138.026728,391.679802 137.748097,389.529393 137.748097,387.176081 C137.748097,384.822768 138.026728,382.67236 138.583998,380.72479 C139.141268,378.777221 139.936385,377.106936 140.969373,375.713883 C142.002361,374.32083 143.232414,373.238863 144.659569,372.467951 C146.086723,371.697038 147.683753,371.311587 149.450707,371.311587 C151.190476,371.311587 152.78071,371.697038 154.221457,372.467951 C155.662204,373.238863 156.899052,374.32083 157.932041,375.713883 C158.965029,377.106936 159.760146,378.777221 160.317416,380.72479 C160.874686,382.67236 161.153316,384.822768 161.153316,387.176081 Z M152.549656,387.176081 C152.549656,384.552272 152.277821,382.53711 151.734143,381.130532 C151.190465,379.723954 150.429327,379.020676 149.450707,379.020676 C148.472086,379.020676 147.710949,379.723954 147.167271,381.130532 C146.623593,382.53711 146.351758,384.552272 146.351758,387.176081 C146.351758,389.799889 146.623593,391.808289 147.167271,393.201342 C147.710949,394.594395 148.472086,395.290911 149.450707,395.290911 C150.429327,395.290911 151.190465,394.594395 151.734143,393.201342 C152.277821,391.808289 152.549656,389.799889 152.549656,387.176081 Z M185.555274,371.879625 L185.555274,392.328998 C185.555274,394.08722 185.303826,395.629022 184.800924,396.954451 C184.298022,398.27988 183.591251,399.388896 182.680591,400.281532 C181.76993,401.174168 180.675795,401.850397 179.398152,402.310239 C178.120508,402.770082 176.706967,403 175.157485,403 C173.608002,403 172.187665,402.770082 170.89643,402.310239 C169.605195,401.850397 168.504263,401.174168 167.593603,400.281532 C166.682942,399.388896 165.969376,398.27988 165.452881,396.954451 C164.936387,395.629022 164.678144,394.08722 164.678144,392.328998 L164.678144,371.879625 L172.996375,371.879625 L172.996375,391.598663 C172.996375,392.951142 173.159476,393.904625 173.485683,394.459141 C173.81189,395.013657 174.369152,395.290911 175.157485,395.290911 C175.945818,395.290911 176.489487,395.013657 176.78851,394.459141 C177.087533,393.904625 177.237042,392.951142 177.237042,391.598663 L177.237042,371.879625 L185.555274,371.879625 Z" id="psyched_by_you" transform="translate(133.000000, 369.500000) rotate(-360.000000) translate(-133.000000, -369.500000) "></path>
        </g>
    </g>
</svg>