<svg width="21px" height="17px" viewBox="0 0 21 17" version="1.1" 
    xmlns="http://www.w3.org/2000/svg" 
    xmlns:xlink="http://www.w3.org/1999/xlink">
    <g id="Deprecated" stroke="none" stroke-width="1" fill="none" fill-rule="evenodd">
        <g id="--------------------" transform="translate(-289.000000, -669.000000)" fill="#000000" fill-rule="nonzero">
            <g id="Shuffle" transform="translate(260.000000, 655.000000)">
                <path d="M44.6622643,14.684056 C44.5859827,14.948908 44.6914587,15.2315972 44.9246616,15.3873138 L46.3297454,16.3649257 L43.4851393,16.3649257 C41.9814668,16.3649257 40.8302649,16.9376054 40.1997227,17.9183879 L38.2574008,20.9382691 L36.4390571,18.1058755 C35.7954434,17.1047529 34.6058789,16.3649257 33.1811908,16.3649257 L29.8819988,16.3649257 C29.8590555,16.3637625 29.8360655,16.3637625 29.8131222,16.3649257 C29.5766756,16.3766033 29.3646357,16.5101269 29.2569947,16.7151244 C29.1493538,16.9201219 29.1624941,17.1653939 29.2914585,17.3584112 C29.4204229,17.5514285 29.6455838,17.6628149 29.8819988,17.6505498 L33.1811908,17.6505498 C34.1303299,17.6505498 34.9056848,18.1500607 35.3163673,18.788865 L37.4790946,22.1502462 L35.3163673,25.5049003 C34.9056846,26.1437218 34.1303266,26.6499297 33.1811908,26.6499297 L29.8819988,26.6499297 C29.643478,26.6465563 29.4215757,26.7683318 29.3013023,26.9686043 C29.181029,27.1688767 29.181029,27.4166005 29.3013023,27.616873 C29.4215757,27.8171454 29.643478,27.938921 29.8819988,27.9355475 L33.1811908,27.9355475 C34.6058822,27.9355475 35.7954436,27.1890017 36.4390571,26.1879048 L38.2574008,23.3555155 L40.1997227,26.3753774 C40.8302649,27.3561727 41.9814668,27.9355475 43.4851393,27.9355475 L46.3228578,27.9355475 L44.9246616,28.9064601 C44.6260467,29.1135525 44.5566595,29.5167717 44.7696809,29.8070753 C44.9827022,30.0973789 45.3974653,30.1648349 45.6960802,29.9577425 L48.7817546,27.8150248 C48.9576598,27.6946106 49.062316,27.4985337 49.062316,27.2893836 C49.062316,27.0802336 48.9576598,26.8841566 48.7817546,26.7637424 L45.6960802,24.6210462 C45.5704509,24.5326497 45.4168605,24.4899898 45.2621573,24.5005235 C44.9796791,24.5158641 44.7385317,24.7042045 44.6622491,24.9690623 C44.5859664,25.2339202 44.6914494,25.5166149 44.9246616,25.6723286 L46.3297454,26.6499297 L43.4851393,26.6499297 C42.286656,26.6499297 41.7113867,26.3148588 41.3155247,25.6991043 L39.035707,22.1502462 L41.3155247,18.6013775 C41.7113867,17.9856294 42.286656,17.6505498 43.4851393,17.6505498 L46.3228578,17.6505498 L44.9246616,18.6214646 C44.6260511,18.828557 44.5566673,19.2317728 44.7696887,19.5220722 C44.98271,19.8123717 45.3974696,19.8798244 45.6960802,19.672732 L48.7817546,17.5300229 C48.9576534,17.4096079 49.062316,17.2135346 49.062316,17.0043892 C49.062316,16.7952437 48.9576534,16.5991705 48.7817546,16.4787555 L45.6960802,14.3360485 C45.5704517,14.2476498 45.4168613,14.2049876 45.2621573,14.2155194 C44.9796855,14.2308659 44.738546,14.419204 44.6622643,14.684056 Z" id="Path"></path>
            </g>
        </g>
    </g>
</svg>